%TF.GenerationSoftware,KiCad,Pcbnew,7.0.2*%
%TF.CreationDate,2023-10-18T18:01:30-04:00*%
%TF.ProjectId,encoder_go_v1_rev2,656e636f-6465-4725-9f67-6f5f76315f72,rev?*%
%TF.SameCoordinates,Original*%
%TF.FileFunction,Profile,NP*%
%FSLAX46Y46*%
G04 Gerber Fmt 4.6, Leading zero omitted, Abs format (unit mm)*
G04 Created by KiCad (PCBNEW 7.0.2) date 2023-10-18 18:01:30*
%MOMM*%
%LPD*%
G01*
G04 APERTURE LIST*
%TA.AperFunction,Profile*%
%ADD10C,0.150000*%
%TD*%
%TA.AperFunction,Profile*%
%ADD11C,0.100000*%
%TD*%
G04 APERTURE END LIST*
D10*
X148750000Y-108000000D02*
X144250000Y-112500000D01*
X140000000Y-87500000D02*
X147000000Y-87500000D01*
X148750000Y-89250000D02*
X147000000Y-87500000D01*
X141250000Y-110000000D02*
G75*
G03*
X141250000Y-110000000I-1250000J0D01*
G01*
X162500000Y-90000000D02*
X162500000Y-110000000D01*
X161250000Y-110000000D02*
G75*
G03*
X161250000Y-110000000I-1250000J0D01*
G01*
X151250000Y-108000000D02*
G75*
G03*
X148750000Y-108000000I-1250000J0D01*
G01*
X144250000Y-112500000D02*
X140000000Y-112500000D01*
X141250000Y-90000000D02*
G75*
G03*
X141250000Y-90000000I-1250000J0D01*
G01*
D11*
X140000000Y-87500000D02*
G75*
G03*
X137500000Y-90000000I0J-2500000D01*
G01*
D10*
X153000000Y-87500000D02*
X160000000Y-87500000D01*
X148750000Y-89250000D02*
G75*
G03*
X151250000Y-89250000I1250000J0D01*
G01*
D11*
X160000000Y-112500000D02*
G75*
G03*
X162500000Y-110000000I0J2500000D01*
G01*
D10*
X151250000Y-89250000D02*
X153000000Y-87500000D01*
D11*
X137500000Y-110000000D02*
G75*
G03*
X140000000Y-112500000I2500000J0D01*
G01*
D10*
X160000000Y-112500000D02*
X155750000Y-112500000D01*
D11*
X162500000Y-90000000D02*
G75*
G03*
X160000000Y-87500000I-2500000J0D01*
G01*
D10*
X151250000Y-108000000D02*
X155750000Y-112500000D01*
X137500000Y-110000000D02*
X137500000Y-90000000D01*
X161250000Y-90000000D02*
G75*
G03*
X161250000Y-90000000I-1250000J0D01*
G01*
M02*
