%TF.GenerationSoftware,KiCad,Pcbnew,7.0.2*%
%TF.CreationDate,2023-10-18T18:01:29-04:00*%
%TF.ProjectId,encoder_go_v1_rev2,656e636f-6465-4725-9f67-6f5f76315f72,rev?*%
%TF.SameCoordinates,Original*%
%TF.FileFunction,Legend,Top*%
%TF.FilePolarity,Positive*%
%FSLAX46Y46*%
G04 Gerber Fmt 4.6, Leading zero omitted, Abs format (unit mm)*
G04 Created by KiCad (PCBNEW 7.0.2) date 2023-10-18 18:01:29*
%MOMM*%
%LPD*%
G01*
G04 APERTURE LIST*
%ADD10C,0.250000*%
%ADD11C,0.200000*%
%ADD12C,0.150000*%
%ADD13C,0.160000*%
%ADD14C,0.254000*%
%ADD15C,0.120000*%
%ADD16C,0.127000*%
G04 APERTURE END LIST*
D10*
X150032378Y-92751489D02*
X150794283Y-92751489D01*
X150413330Y-93132442D02*
X150413330Y-92370537D01*
D11*
X139035714Y-96047023D02*
X139273809Y-96047023D01*
X139273809Y-96047023D02*
X139392857Y-96106547D01*
X139392857Y-96106547D02*
X139511904Y-96225595D01*
X139511904Y-96225595D02*
X139571428Y-96463690D01*
X139571428Y-96463690D02*
X139571428Y-96880357D01*
X139571428Y-96880357D02*
X139511904Y-97118452D01*
X139511904Y-97118452D02*
X139392857Y-97237500D01*
X139392857Y-97237500D02*
X139273809Y-97297023D01*
X139273809Y-97297023D02*
X139035714Y-97297023D01*
X139035714Y-97297023D02*
X138916666Y-97237500D01*
X138916666Y-97237500D02*
X138797619Y-97118452D01*
X138797619Y-97118452D02*
X138738095Y-96880357D01*
X138738095Y-96880357D02*
X138738095Y-96463690D01*
X138738095Y-96463690D02*
X138797619Y-96225595D01*
X138797619Y-96225595D02*
X138916666Y-96106547D01*
X138916666Y-96106547D02*
X139035714Y-96047023D01*
X140642857Y-96463690D02*
X140642857Y-97297023D01*
X140107143Y-96463690D02*
X140107143Y-97118452D01*
X140107143Y-97118452D02*
X140166666Y-97237500D01*
X140166666Y-97237500D02*
X140285714Y-97297023D01*
X140285714Y-97297023D02*
X140464285Y-97297023D01*
X140464285Y-97297023D02*
X140583333Y-97237500D01*
X140583333Y-97237500D02*
X140642857Y-97177976D01*
X141059523Y-96463690D02*
X141535714Y-96463690D01*
X141238095Y-96047023D02*
X141238095Y-97118452D01*
X141238095Y-97118452D02*
X141297618Y-97237500D01*
X141297618Y-97237500D02*
X141416666Y-97297023D01*
X141416666Y-97297023D02*
X141535714Y-97297023D01*
X138797619Y-99322023D02*
X138797619Y-98072023D01*
X138797619Y-98072023D02*
X139214285Y-98964880D01*
X139214285Y-98964880D02*
X139630952Y-98072023D01*
X139630952Y-98072023D02*
X139630952Y-99322023D01*
X140404761Y-99322023D02*
X140285713Y-99262500D01*
X140285713Y-99262500D02*
X140226190Y-99202976D01*
X140226190Y-99202976D02*
X140166666Y-99083928D01*
X140166666Y-99083928D02*
X140166666Y-98726785D01*
X140166666Y-98726785D02*
X140226190Y-98607738D01*
X140226190Y-98607738D02*
X140285713Y-98548214D01*
X140285713Y-98548214D02*
X140404761Y-98488690D01*
X140404761Y-98488690D02*
X140583332Y-98488690D01*
X140583332Y-98488690D02*
X140702380Y-98548214D01*
X140702380Y-98548214D02*
X140761904Y-98607738D01*
X140761904Y-98607738D02*
X140821428Y-98726785D01*
X140821428Y-98726785D02*
X140821428Y-99083928D01*
X140821428Y-99083928D02*
X140761904Y-99202976D01*
X140761904Y-99202976D02*
X140702380Y-99262500D01*
X140702380Y-99262500D02*
X140583332Y-99322023D01*
X140583332Y-99322023D02*
X140404761Y-99322023D01*
X141892856Y-99322023D02*
X141892856Y-98072023D01*
X141892856Y-99262500D02*
X141773808Y-99322023D01*
X141773808Y-99322023D02*
X141535713Y-99322023D01*
X141535713Y-99322023D02*
X141416665Y-99262500D01*
X141416665Y-99262500D02*
X141357142Y-99202976D01*
X141357142Y-99202976D02*
X141297618Y-99083928D01*
X141297618Y-99083928D02*
X141297618Y-98726785D01*
X141297618Y-98726785D02*
X141357142Y-98607738D01*
X141357142Y-98607738D02*
X141416665Y-98548214D01*
X141416665Y-98548214D02*
X141535713Y-98488690D01*
X141535713Y-98488690D02*
X141773808Y-98488690D01*
X141773808Y-98488690D02*
X141892856Y-98548214D01*
X142964284Y-99262500D02*
X142845236Y-99322023D01*
X142845236Y-99322023D02*
X142607141Y-99322023D01*
X142607141Y-99322023D02*
X142488094Y-99262500D01*
X142488094Y-99262500D02*
X142428570Y-99143452D01*
X142428570Y-99143452D02*
X142428570Y-98667261D01*
X142428570Y-98667261D02*
X142488094Y-98548214D01*
X142488094Y-98548214D02*
X142607141Y-98488690D01*
X142607141Y-98488690D02*
X142845236Y-98488690D01*
X142845236Y-98488690D02*
X142964284Y-98548214D01*
X142964284Y-98548214D02*
X143023808Y-98667261D01*
X143023808Y-98667261D02*
X143023808Y-98786309D01*
X143023808Y-98786309D02*
X142428570Y-98905357D01*
X138797619Y-101347023D02*
X138797619Y-100097023D01*
X138797619Y-100097023D02*
X139273809Y-100097023D01*
X139273809Y-100097023D02*
X139392857Y-100156547D01*
X139392857Y-100156547D02*
X139452380Y-100216071D01*
X139452380Y-100216071D02*
X139511904Y-100335119D01*
X139511904Y-100335119D02*
X139511904Y-100513690D01*
X139511904Y-100513690D02*
X139452380Y-100632738D01*
X139452380Y-100632738D02*
X139392857Y-100692261D01*
X139392857Y-100692261D02*
X139273809Y-100751785D01*
X139273809Y-100751785D02*
X138797619Y-100751785D01*
X140583333Y-100513690D02*
X140583333Y-101347023D01*
X140047619Y-100513690D02*
X140047619Y-101168452D01*
X140047619Y-101168452D02*
X140107142Y-101287500D01*
X140107142Y-101287500D02*
X140226190Y-101347023D01*
X140226190Y-101347023D02*
X140404761Y-101347023D01*
X140404761Y-101347023D02*
X140523809Y-101287500D01*
X140523809Y-101287500D02*
X140583333Y-101227976D01*
X141119047Y-101287500D02*
X141238094Y-101347023D01*
X141238094Y-101347023D02*
X141476190Y-101347023D01*
X141476190Y-101347023D02*
X141595237Y-101287500D01*
X141595237Y-101287500D02*
X141654761Y-101168452D01*
X141654761Y-101168452D02*
X141654761Y-101108928D01*
X141654761Y-101108928D02*
X141595237Y-100989880D01*
X141595237Y-100989880D02*
X141476190Y-100930357D01*
X141476190Y-100930357D02*
X141297618Y-100930357D01*
X141297618Y-100930357D02*
X141178571Y-100870833D01*
X141178571Y-100870833D02*
X141119047Y-100751785D01*
X141119047Y-100751785D02*
X141119047Y-100692261D01*
X141119047Y-100692261D02*
X141178571Y-100573214D01*
X141178571Y-100573214D02*
X141297618Y-100513690D01*
X141297618Y-100513690D02*
X141476190Y-100513690D01*
X141476190Y-100513690D02*
X141595237Y-100573214D01*
X142190476Y-101347023D02*
X142190476Y-100097023D01*
X142726190Y-101347023D02*
X142726190Y-100692261D01*
X142726190Y-100692261D02*
X142666666Y-100573214D01*
X142666666Y-100573214D02*
X142547618Y-100513690D01*
X142547618Y-100513690D02*
X142369047Y-100513690D01*
X142369047Y-100513690D02*
X142249999Y-100573214D01*
X142249999Y-100573214D02*
X142190476Y-100632738D01*
D12*
%TO.C,R1*%
X144933651Y-94920451D02*
X144600318Y-94444260D01*
X144362223Y-94920451D02*
X144362223Y-93920451D01*
X144362223Y-93920451D02*
X144743175Y-93920451D01*
X144743175Y-93920451D02*
X144838413Y-93968070D01*
X144838413Y-93968070D02*
X144886032Y-94015689D01*
X144886032Y-94015689D02*
X144933651Y-94110927D01*
X144933651Y-94110927D02*
X144933651Y-94253784D01*
X144933651Y-94253784D02*
X144886032Y-94349022D01*
X144886032Y-94349022D02*
X144838413Y-94396641D01*
X144838413Y-94396641D02*
X144743175Y-94444260D01*
X144743175Y-94444260D02*
X144362223Y-94444260D01*
X145886032Y-94920451D02*
X145314604Y-94920451D01*
X145600318Y-94920451D02*
X145600318Y-93920451D01*
X145600318Y-93920451D02*
X145505080Y-94063308D01*
X145505080Y-94063308D02*
X145409842Y-94158546D01*
X145409842Y-94158546D02*
X145314604Y-94206165D01*
%TO.C,C1*%
X150937391Y-97758081D02*
X150889772Y-97805701D01*
X150889772Y-97805701D02*
X150746915Y-97853320D01*
X150746915Y-97853320D02*
X150651677Y-97853320D01*
X150651677Y-97853320D02*
X150508820Y-97805701D01*
X150508820Y-97805701D02*
X150413582Y-97710462D01*
X150413582Y-97710462D02*
X150365963Y-97615224D01*
X150365963Y-97615224D02*
X150318344Y-97424748D01*
X150318344Y-97424748D02*
X150318344Y-97281891D01*
X150318344Y-97281891D02*
X150365963Y-97091415D01*
X150365963Y-97091415D02*
X150413582Y-96996177D01*
X150413582Y-96996177D02*
X150508820Y-96900939D01*
X150508820Y-96900939D02*
X150651677Y-96853320D01*
X150651677Y-96853320D02*
X150746915Y-96853320D01*
X150746915Y-96853320D02*
X150889772Y-96900939D01*
X150889772Y-96900939D02*
X150937391Y-96948558D01*
X151889772Y-97853320D02*
X151318344Y-97853320D01*
X151604058Y-97853320D02*
X151604058Y-96853320D01*
X151604058Y-96853320D02*
X151508820Y-96996177D01*
X151508820Y-96996177D02*
X151413582Y-97091415D01*
X151413582Y-97091415D02*
X151318344Y-97139034D01*
D13*
%TO.C,D1*%
X144349189Y-93408009D02*
X144349189Y-92258009D01*
X144349189Y-92258009D02*
X144622999Y-92258009D01*
X144622999Y-92258009D02*
X144787284Y-92312771D01*
X144787284Y-92312771D02*
X144896808Y-92422295D01*
X144896808Y-92422295D02*
X144951570Y-92531819D01*
X144951570Y-92531819D02*
X145006332Y-92750867D01*
X145006332Y-92750867D02*
X145006332Y-92915152D01*
X145006332Y-92915152D02*
X144951570Y-93134200D01*
X144951570Y-93134200D02*
X144896808Y-93243724D01*
X144896808Y-93243724D02*
X144787284Y-93353248D01*
X144787284Y-93353248D02*
X144622999Y-93408009D01*
X144622999Y-93408009D02*
X144349189Y-93408009D01*
X146101570Y-93408009D02*
X145444427Y-93408009D01*
X145772999Y-93408009D02*
X145772999Y-92258009D01*
X145772999Y-92258009D02*
X145663475Y-92422295D01*
X145663475Y-92422295D02*
X145553951Y-92531819D01*
X145553951Y-92531819D02*
X145444427Y-92586581D01*
D12*
%TO.C,J1*%
X159568619Y-100561333D02*
X160282904Y-100561333D01*
X160282904Y-100561333D02*
X160425761Y-100608952D01*
X160425761Y-100608952D02*
X160521000Y-100704190D01*
X160521000Y-100704190D02*
X160568619Y-100847047D01*
X160568619Y-100847047D02*
X160568619Y-100942285D01*
X160568619Y-99561333D02*
X160568619Y-100132761D01*
X160568619Y-99847047D02*
X159568619Y-99847047D01*
X159568619Y-99847047D02*
X159711476Y-99942285D01*
X159711476Y-99942285D02*
X159806714Y-100037523D01*
X159806714Y-100037523D02*
X159854333Y-100132761D01*
D14*
%TO.C,D2*%
X153507618Y-91824525D02*
X153507618Y-90554525D01*
X153507618Y-90554525D02*
X153809999Y-90554525D01*
X153809999Y-90554525D02*
X153991428Y-90615001D01*
X153991428Y-90615001D02*
X154112380Y-90735953D01*
X154112380Y-90735953D02*
X154172857Y-90856906D01*
X154172857Y-90856906D02*
X154233333Y-91098810D01*
X154233333Y-91098810D02*
X154233333Y-91280239D01*
X154233333Y-91280239D02*
X154172857Y-91522144D01*
X154172857Y-91522144D02*
X154112380Y-91643096D01*
X154112380Y-91643096D02*
X153991428Y-91764049D01*
X153991428Y-91764049D02*
X153809999Y-91824525D01*
X153809999Y-91824525D02*
X153507618Y-91824525D01*
X154717142Y-90675477D02*
X154777618Y-90615001D01*
X154777618Y-90615001D02*
X154898571Y-90554525D01*
X154898571Y-90554525D02*
X155200952Y-90554525D01*
X155200952Y-90554525D02*
X155321904Y-90615001D01*
X155321904Y-90615001D02*
X155382380Y-90675477D01*
X155382380Y-90675477D02*
X155442857Y-90796429D01*
X155442857Y-90796429D02*
X155442857Y-90917382D01*
X155442857Y-90917382D02*
X155382380Y-91098810D01*
X155382380Y-91098810D02*
X154656666Y-91824525D01*
X154656666Y-91824525D02*
X155442857Y-91824525D01*
D15*
%TO.C,R1*%
X147873254Y-94372832D02*
X148327382Y-94372832D01*
X147873254Y-95842832D02*
X148327382Y-95842832D01*
%TO.C,C1*%
X147842806Y-96335701D02*
X148365310Y-96335701D01*
X147842806Y-97805701D02*
X148365310Y-97805701D01*
%TO.C,D1*%
X149808001Y-93700999D02*
X149808001Y-91780999D01*
X149808001Y-91780999D02*
X147123001Y-91780999D01*
X147123001Y-93700999D02*
X149808001Y-93700999D01*
D16*
%TO.C,J1*%
X156137000Y-96687000D02*
X157117000Y-96687000D01*
X156137000Y-97567000D02*
X156137000Y-96687000D01*
X159037000Y-97807000D02*
X159037000Y-102567000D01*
X156137000Y-103687000D02*
X156137000Y-102807000D01*
X156137000Y-103687000D02*
X157117000Y-103687000D01*
D11*
X154437000Y-98187000D02*
G75*
G03*
X154437000Y-98187000I-100000J0D01*
G01*
%TO.C,D2*%
X151945000Y-94748999D02*
X156945000Y-94748999D01*
X156945000Y-92224999D02*
X151945000Y-92224999D01*
%TD*%
M02*
