%TF.GenerationSoftware,KiCad,Pcbnew,7.0.2*%
%TF.CreationDate,2023-10-18T18:01:29-04:00*%
%TF.ProjectId,encoder_go_v1_rev2,656e636f-6465-4725-9f67-6f5f76315f72,rev?*%
%TF.SameCoordinates,Original*%
%TF.FileFunction,Copper,L2,Bot*%
%TF.FilePolarity,Positive*%
%FSLAX46Y46*%
G04 Gerber Fmt 4.6, Leading zero omitted, Abs format (unit mm)*
G04 Created by KiCad (PCBNEW 7.0.2) date 2023-10-18 18:01:29*
%MOMM*%
%LPD*%
G01*
G04 APERTURE LIST*
G04 Aperture macros list*
%AMRoundRect*
0 Rectangle with rounded corners*
0 $1 Rounding radius*
0 $2 $3 $4 $5 $6 $7 $8 $9 X,Y pos of 4 corners*
0 Add a 4 corners polygon primitive as box body*
4,1,4,$2,$3,$4,$5,$6,$7,$8,$9,$2,$3,0*
0 Add four circle primitives for the rounded corners*
1,1,$1+$1,$2,$3*
1,1,$1+$1,$4,$5*
1,1,$1+$1,$6,$7*
1,1,$1+$1,$8,$9*
0 Add four rect primitives between the rounded corners*
20,1,$1+$1,$2,$3,$4,$5,0*
20,1,$1+$1,$4,$5,$6,$7,0*
20,1,$1+$1,$6,$7,$8,$9,0*
20,1,$1+$1,$8,$9,$2,$3,0*%
G04 Aperture macros list end*
%TA.AperFunction,SMDPad,CuDef*%
%ADD10RoundRect,0.131250X0.131250X0.503750X-0.131250X0.503750X-0.131250X-0.503750X0.131250X-0.503750X0*%
%TD*%
%TA.AperFunction,ComponentPad*%
%ADD11R,1.700000X1.700000*%
%TD*%
%TA.AperFunction,ComponentPad*%
%ADD12O,1.700000X1.700000*%
%TD*%
%TA.AperFunction,ViaPad*%
%ADD13C,0.800000*%
%TD*%
%TA.AperFunction,Conductor*%
%ADD14C,0.500000*%
%TD*%
%TA.AperFunction,Conductor*%
%ADD15C,0.200000*%
%TD*%
G04 APERTURE END LIST*
D10*
%TO.P,U1,1,VDD*%
%TO.N,+3.3V*%
X148095000Y-97460000D03*
%TO.P,U1,2,MODE*%
%TO.N,Net-(J2-Pin_2)*%
X149365000Y-97460000D03*
%TO.P,U1,3,OUT_SEL*%
%TO.N,Net-(J2-Pin_1)*%
X150635000Y-97460000D03*
%TO.P,U1,4,GND*%
%TO.N,GND*%
X151905000Y-97460000D03*
%TO.P,U1,5,PUSH*%
%TO.N,Net-(J2-Pin_3)*%
X151905000Y-102540000D03*
%TO.P,U1,6,SDA\u002CA\u002CDO*%
%TO.N,SDA*%
X150635000Y-102540000D03*
%TO.P,U1,7,SCL\u002CB\u002CCLK*%
%TO.N,SCL*%
X149365000Y-102540000D03*
%TO.P,U1,8,Z\u002CCS*%
%TO.N,CS*%
X148095000Y-102540000D03*
%TD*%
D11*
%TO.P,J2,1,Pin_1*%
%TO.N,Net-(J2-Pin_1)*%
X144503000Y-96531999D03*
D12*
%TO.P,J2,2,Pin_2*%
%TO.N,Net-(J2-Pin_2)*%
X144503000Y-99071999D03*
%TO.P,J2,3,Pin_3*%
%TO.N,Net-(J2-Pin_3)*%
X144503000Y-101611999D03*
%TD*%
D13*
%TO.N,+3.3V*%
X154000000Y-96000000D03*
X150500000Y-94000000D03*
X147500000Y-98372499D03*
%TO.N,GND*%
X156350014Y-97043499D03*
X148500000Y-94000000D03*
X151099450Y-96305886D03*
X156399266Y-103487000D03*
%TO.N,SDA*%
X152400000Y-104140000D03*
%TO.N,SCL*%
X150368000Y-101092000D03*
%TO.N,CS*%
X148093836Y-101259094D03*
%TD*%
D14*
%TO.N,GND*%
X151905000Y-97272988D02*
X151905000Y-97460000D01*
X151099450Y-96305886D02*
X151099450Y-96467438D01*
X151099450Y-96467438D02*
X151905000Y-97272988D01*
%TO.N,+3.3V*%
X152500000Y-96000000D02*
X154000000Y-96000000D01*
X150500000Y-94000000D02*
X152500000Y-96000000D01*
D15*
X147500000Y-98055000D02*
X148095000Y-97460000D01*
X147500000Y-98372499D02*
X147500000Y-98055000D01*
%TO.N,SDA*%
X152400000Y-104140000D02*
X152235000Y-104140000D01*
X152235000Y-104140000D02*
X150635000Y-102540000D01*
%TO.N,SCL*%
X149365000Y-102095000D02*
X149365000Y-102540000D01*
X150368000Y-101092000D02*
X149365000Y-102095000D01*
%TO.N,CS*%
X148093836Y-101259094D02*
X148093836Y-102538836D01*
X148093836Y-102538836D02*
X148095000Y-102540000D01*
%TO.N,Net-(J2-Pin_1)*%
X144503000Y-96531999D02*
X145232240Y-95802759D01*
X145232240Y-95802759D02*
X149327760Y-95802759D01*
X150635000Y-97109999D02*
X150635000Y-97460000D01*
X149327760Y-95802759D02*
X150635000Y-97109999D01*
%TO.N,Net-(J2-Pin_2)*%
X149365000Y-98541999D02*
X149365000Y-97460000D01*
X148835000Y-99071999D02*
X149365000Y-98541999D01*
X144503000Y-99071999D02*
X148835000Y-99071999D01*
%TO.N,Net-(J2-Pin_3)*%
X147763786Y-100017478D02*
X151048567Y-100017478D01*
X144503000Y-101611999D02*
X145555905Y-100559094D01*
X145555905Y-100559094D02*
X147222170Y-100559094D01*
X151048567Y-100017478D02*
X151905000Y-100873911D01*
X151905000Y-100873911D02*
X151905000Y-102540000D01*
X147222170Y-100559094D02*
X147763786Y-100017478D01*
%TD*%
%TA.AperFunction,Conductor*%
%TO.N,GND*%
G36*
X157522145Y-92019685D02*
G01*
X157534489Y-92028741D01*
X160455382Y-94462819D01*
X160494281Y-94520858D01*
X160499999Y-94558078D01*
X160500000Y-104448637D01*
X160480315Y-104515676D01*
X160463681Y-104536318D01*
X159536319Y-105463681D01*
X159474996Y-105497166D01*
X159448638Y-105500000D01*
X156000000Y-105500000D01*
X153000000Y-105500000D01*
X147000000Y-105500000D01*
X144000000Y-105500000D01*
X140551362Y-105500000D01*
X140484323Y-105480315D01*
X140463681Y-105463681D01*
X139536319Y-104536319D01*
X139502834Y-104474996D01*
X139500000Y-104448638D01*
X139500000Y-101611998D01*
X143147340Y-101611998D01*
X143167936Y-101847406D01*
X143191846Y-101936638D01*
X143229097Y-102075662D01*
X143328965Y-102289829D01*
X143464505Y-102483400D01*
X143631599Y-102650494D01*
X143825170Y-102786034D01*
X144039337Y-102885902D01*
X144267592Y-102947061D01*
X144267592Y-102947062D01*
X144502999Y-102967658D01*
X144502999Y-102967657D01*
X144503000Y-102967658D01*
X144738408Y-102947062D01*
X144966663Y-102885902D01*
X145180830Y-102786034D01*
X145374401Y-102650494D01*
X145541495Y-102483400D01*
X145677035Y-102289829D01*
X145776903Y-102075662D01*
X145838063Y-101847407D01*
X145858659Y-101611999D01*
X145838063Y-101376591D01*
X145821744Y-101315687D01*
X145823407Y-101245838D01*
X145862569Y-101187975D01*
X145926797Y-101160471D01*
X145941519Y-101159594D01*
X147066268Y-101159594D01*
X147133307Y-101179279D01*
X147179062Y-101232083D01*
X147189589Y-101270633D01*
X147208162Y-101447351D01*
X147266656Y-101627378D01*
X147345325Y-101763637D01*
X147361798Y-101831538D01*
X147357015Y-101860229D01*
X147334819Y-101936633D01*
X147334819Y-101936637D01*
X147332000Y-101972454D01*
X147332000Y-103107546D01*
X147334819Y-103143363D01*
X147348215Y-103189472D01*
X147379351Y-103296644D01*
X147460602Y-103434032D01*
X147573467Y-103546897D01*
X147573469Y-103546898D01*
X147710858Y-103628150D01*
X147864137Y-103672681D01*
X147899954Y-103675500D01*
X147902399Y-103675500D01*
X148287601Y-103675500D01*
X148290046Y-103675500D01*
X148325863Y-103672681D01*
X148479142Y-103628150D01*
X148616531Y-103546898D01*
X148642318Y-103521110D01*
X148703640Y-103487625D01*
X148773332Y-103492609D01*
X148817682Y-103521111D01*
X148843468Y-103546898D01*
X148942894Y-103605698D01*
X148980858Y-103628150D01*
X149134137Y-103672681D01*
X149169954Y-103675500D01*
X149172399Y-103675500D01*
X149557601Y-103675500D01*
X149560046Y-103675500D01*
X149595863Y-103672681D01*
X149749142Y-103628150D01*
X149886531Y-103546898D01*
X149912317Y-103521111D01*
X149973640Y-103487625D01*
X150043332Y-103492609D01*
X150087682Y-103521111D01*
X150113468Y-103546898D01*
X150212894Y-103605698D01*
X150250858Y-103628150D01*
X150404137Y-103672681D01*
X150439954Y-103675500D01*
X150442399Y-103675500D01*
X150827601Y-103675500D01*
X150830046Y-103675500D01*
X150836530Y-103674989D01*
X150857618Y-103673330D01*
X150925995Y-103687692D01*
X150955031Y-103709266D01*
X151476265Y-104230500D01*
X151509750Y-104291823D01*
X151511905Y-104305218D01*
X151514326Y-104328257D01*
X151572820Y-104508284D01*
X151667466Y-104672216D01*
X151794129Y-104812889D01*
X151947269Y-104924151D01*
X152120197Y-105001144D01*
X152305352Y-105040500D01*
X152305354Y-105040500D01*
X152494648Y-105040500D01*
X152618083Y-105014262D01*
X152679803Y-105001144D01*
X152852730Y-104924151D01*
X153005871Y-104812888D01*
X153132533Y-104672216D01*
X153227179Y-104508284D01*
X153285674Y-104328256D01*
X153305460Y-104140000D01*
X153285674Y-103951744D01*
X153227179Y-103771716D01*
X153227179Y-103771715D01*
X153132533Y-103607783D01*
X153005870Y-103467110D01*
X152852732Y-103355849D01*
X152774155Y-103320864D01*
X152730818Y-103301569D01*
X152677583Y-103256321D01*
X152657261Y-103189472D01*
X152662178Y-103153698D01*
X152665181Y-103143363D01*
X152668000Y-103107546D01*
X152668000Y-101972454D01*
X152665181Y-101936637D01*
X152620650Y-101783358D01*
X152590918Y-101733085D01*
X152531424Y-101632485D01*
X152532717Y-101631720D01*
X152508334Y-101587066D01*
X152505500Y-101560708D01*
X152505500Y-100921398D01*
X152506561Y-100905212D01*
X152510682Y-100873910D01*
X152498357Y-100780296D01*
X152490044Y-100717149D01*
X152429536Y-100571070D01*
X152420876Y-100559784D01*
X152333282Y-100445628D01*
X152308229Y-100426405D01*
X152296034Y-100415710D01*
X151506766Y-99626442D01*
X151496070Y-99614246D01*
X151476848Y-99589194D01*
X151351408Y-99492942D01*
X151203801Y-99431801D01*
X151197269Y-99431373D01*
X151048567Y-99411795D01*
X151020730Y-99415460D01*
X151017264Y-99415917D01*
X151001080Y-99416978D01*
X149638617Y-99416978D01*
X149571578Y-99397293D01*
X149525823Y-99344489D01*
X149515879Y-99275331D01*
X149544904Y-99211775D01*
X149550936Y-99205297D01*
X149756043Y-99000189D01*
X149768223Y-98989508D01*
X149793282Y-98970281D01*
X149889536Y-98844840D01*
X149950044Y-98698761D01*
X149965500Y-98581360D01*
X149965662Y-98580123D01*
X149993901Y-98516216D01*
X150052208Y-98477720D01*
X150122073Y-98476858D01*
X150151728Y-98489524D01*
X150250858Y-98548150D01*
X150404137Y-98592681D01*
X150439954Y-98595500D01*
X150442399Y-98595500D01*
X150827601Y-98595500D01*
X150830046Y-98595500D01*
X150865863Y-98592681D01*
X151019142Y-98548150D01*
X151156531Y-98466898D01*
X151182671Y-98440757D01*
X151243993Y-98407272D01*
X151313685Y-98412256D01*
X151358034Y-98440757D01*
X151383776Y-98466499D01*
X151521059Y-98547687D01*
X151674212Y-98592182D01*
X151707574Y-98594808D01*
X151712451Y-98594999D01*
X152097570Y-98594999D01*
X152102403Y-98594809D01*
X152135781Y-98592182D01*
X152288944Y-98547685D01*
X152426220Y-98466501D01*
X152448842Y-98443879D01*
X152510165Y-98410393D01*
X152560840Y-98409967D01*
X152716000Y-98440999D01*
X152716000Y-96874500D01*
X152735685Y-96807461D01*
X152788489Y-96761706D01*
X152840000Y-96750500D01*
X153460663Y-96750500D01*
X153527702Y-96770185D01*
X153533550Y-96774183D01*
X153547271Y-96784152D01*
X153720197Y-96861144D01*
X153905352Y-96900500D01*
X153905354Y-96900500D01*
X154094648Y-96900500D01*
X154218083Y-96874262D01*
X154279803Y-96861144D01*
X154452730Y-96784151D01*
X154499047Y-96750500D01*
X154605870Y-96672889D01*
X154732533Y-96532216D01*
X154827179Y-96368284D01*
X154875322Y-96220115D01*
X154885674Y-96188256D01*
X154905460Y-96000000D01*
X154885674Y-95811744D01*
X154855332Y-95718363D01*
X154827179Y-95631715D01*
X154732533Y-95467783D01*
X154605870Y-95327110D01*
X154452730Y-95215848D01*
X154279802Y-95138855D01*
X154094648Y-95099500D01*
X154094646Y-95099500D01*
X153905354Y-95099500D01*
X153905352Y-95099500D01*
X153720197Y-95138855D01*
X153547271Y-95215847D01*
X153533550Y-95225817D01*
X153467744Y-95249298D01*
X153460663Y-95249500D01*
X152862230Y-95249500D01*
X152795191Y-95229815D01*
X152774549Y-95213181D01*
X151412771Y-93851403D01*
X151382521Y-93802040D01*
X151327179Y-93631715D01*
X151232533Y-93467783D01*
X151105870Y-93327110D01*
X150952730Y-93215848D01*
X150779802Y-93138855D01*
X150594648Y-93099500D01*
X150594646Y-93099500D01*
X150405354Y-93099500D01*
X150405352Y-93099500D01*
X150220197Y-93138855D01*
X150047269Y-93215848D01*
X149894129Y-93327110D01*
X149767466Y-93467783D01*
X149672820Y-93631715D01*
X149614326Y-93811742D01*
X149594540Y-93999999D01*
X149614326Y-94188257D01*
X149672820Y-94368284D01*
X149767466Y-94532216D01*
X149894129Y-94672889D01*
X150047269Y-94784151D01*
X150220193Y-94861143D01*
X150220196Y-94861143D01*
X150220197Y-94861144D01*
X150285329Y-94874987D01*
X150346808Y-94908178D01*
X150347228Y-94908596D01*
X151076080Y-95637448D01*
X151597425Y-96158792D01*
X151630910Y-96220115D01*
X151625926Y-96289807D01*
X151584054Y-96345740D01*
X151544339Y-96365549D01*
X151521059Y-96372312D01*
X151383775Y-96453501D01*
X151358033Y-96479243D01*
X151296709Y-96512728D01*
X151227018Y-96507742D01*
X151182672Y-96479242D01*
X151156532Y-96453102D01*
X151019144Y-96371851D01*
X151019143Y-96371850D01*
X151019142Y-96371850D01*
X150865863Y-96327319D01*
X150856634Y-96326592D01*
X150832478Y-96324691D01*
X150832467Y-96324690D01*
X150830046Y-96324500D01*
X150827601Y-96324500D01*
X150750098Y-96324500D01*
X150683059Y-96304815D01*
X150662417Y-96288181D01*
X149785959Y-95411723D01*
X149775263Y-95399527D01*
X149756041Y-95374475D01*
X149630600Y-95278222D01*
X149484522Y-95217715D01*
X149367121Y-95202259D01*
X149327760Y-95197076D01*
X149299923Y-95200741D01*
X149296457Y-95201198D01*
X149280273Y-95202259D01*
X145521332Y-95202259D01*
X145477997Y-95194440D01*
X145460485Y-95187908D01*
X145404166Y-95181853D01*
X145404165Y-95181852D01*
X145400873Y-95181499D01*
X145397550Y-95181499D01*
X143608439Y-95181499D01*
X143608420Y-95181499D01*
X143605128Y-95181500D01*
X143601848Y-95181852D01*
X143601840Y-95181853D01*
X143545515Y-95187908D01*
X143410669Y-95238203D01*
X143295454Y-95324453D01*
X143209204Y-95439667D01*
X143198718Y-95467783D01*
X143158909Y-95574516D01*
X143152500Y-95634126D01*
X143152500Y-95637447D01*
X143152500Y-95637448D01*
X143152500Y-97426559D01*
X143152500Y-97426577D01*
X143152501Y-97429871D01*
X143158909Y-97489482D01*
X143209204Y-97624330D01*
X143295454Y-97739545D01*
X143410669Y-97825795D01*
X143522907Y-97867657D01*
X143542082Y-97874809D01*
X143598016Y-97916680D01*
X143622433Y-97982145D01*
X143607581Y-98050418D01*
X143586431Y-98078672D01*
X143464503Y-98200600D01*
X143328965Y-98394169D01*
X143229097Y-98608335D01*
X143167936Y-98836591D01*
X143147340Y-99071999D01*
X143167936Y-99307406D01*
X143197012Y-99415917D01*
X143229097Y-99535662D01*
X143328965Y-99749829D01*
X143464505Y-99943400D01*
X143631599Y-100110494D01*
X143817160Y-100240425D01*
X143860783Y-100295001D01*
X143867976Y-100364500D01*
X143836454Y-100426854D01*
X143817158Y-100443574D01*
X143651194Y-100559784D01*
X143631595Y-100573507D01*
X143464505Y-100740597D01*
X143328965Y-100934169D01*
X143229097Y-101148335D01*
X143167936Y-101376591D01*
X143147340Y-101611998D01*
X139500000Y-101611998D01*
X139500000Y-94558078D01*
X139519685Y-94491039D01*
X139544617Y-94462819D01*
X139874092Y-94188257D01*
X142465510Y-92028741D01*
X142529614Y-92000945D01*
X142544894Y-92000000D01*
X157455106Y-92000000D01*
X157522145Y-92019685D01*
G37*
%TD.AperFunction*%
%TD*%
M02*
