%TF.GenerationSoftware,KiCad,Pcbnew,7.0.2*%
%TF.CreationDate,2023-10-18T18:01:29-04:00*%
%TF.ProjectId,encoder_go_v1_rev2,656e636f-6465-4725-9f67-6f5f76315f72,rev?*%
%TF.SameCoordinates,Original*%
%TF.FileFunction,Legend,Bot*%
%TF.FilePolarity,Positive*%
%FSLAX46Y46*%
G04 Gerber Fmt 4.6, Leading zero omitted, Abs format (unit mm)*
G04 Created by KiCad (PCBNEW 7.0.2) date 2023-10-18 18:01:29*
%MOMM*%
%LPD*%
G01*
G04 APERTURE LIST*
%ADD10C,0.300000*%
%ADD11C,0.200000*%
%ADD12C,0.160000*%
%ADD13C,0.120000*%
G04 APERTURE END LIST*
D10*
X160399285Y-105778354D02*
X160399285Y-105278354D01*
X159613571Y-105064068D02*
X159613571Y-105778354D01*
X159613571Y-105778354D02*
X161113571Y-105778354D01*
X161113571Y-105778354D02*
X161113571Y-105064068D01*
X160613571Y-104421211D02*
X159613571Y-104421211D01*
X160470714Y-104421211D02*
X160542142Y-104349782D01*
X160542142Y-104349782D02*
X160613571Y-104206925D01*
X160613571Y-104206925D02*
X160613571Y-103992639D01*
X160613571Y-103992639D02*
X160542142Y-103849782D01*
X160542142Y-103849782D02*
X160399285Y-103778354D01*
X160399285Y-103778354D02*
X159613571Y-103778354D01*
X159685000Y-102421211D02*
X159613571Y-102564068D01*
X159613571Y-102564068D02*
X159613571Y-102849782D01*
X159613571Y-102849782D02*
X159685000Y-102992639D01*
X159685000Y-102992639D02*
X159756428Y-103064068D01*
X159756428Y-103064068D02*
X159899285Y-103135496D01*
X159899285Y-103135496D02*
X160327857Y-103135496D01*
X160327857Y-103135496D02*
X160470714Y-103064068D01*
X160470714Y-103064068D02*
X160542142Y-102992639D01*
X160542142Y-102992639D02*
X160613571Y-102849782D01*
X160613571Y-102849782D02*
X160613571Y-102564068D01*
X160613571Y-102564068D02*
X160542142Y-102421211D01*
X159613571Y-101564068D02*
X159685000Y-101706925D01*
X159685000Y-101706925D02*
X159756428Y-101778354D01*
X159756428Y-101778354D02*
X159899285Y-101849782D01*
X159899285Y-101849782D02*
X160327857Y-101849782D01*
X160327857Y-101849782D02*
X160470714Y-101778354D01*
X160470714Y-101778354D02*
X160542142Y-101706925D01*
X160542142Y-101706925D02*
X160613571Y-101564068D01*
X160613571Y-101564068D02*
X160613571Y-101349782D01*
X160613571Y-101349782D02*
X160542142Y-101206925D01*
X160542142Y-101206925D02*
X160470714Y-101135497D01*
X160470714Y-101135497D02*
X160327857Y-101064068D01*
X160327857Y-101064068D02*
X159899285Y-101064068D01*
X159899285Y-101064068D02*
X159756428Y-101135497D01*
X159756428Y-101135497D02*
X159685000Y-101206925D01*
X159685000Y-101206925D02*
X159613571Y-101349782D01*
X159613571Y-101349782D02*
X159613571Y-101564068D01*
X159613571Y-99778354D02*
X161113571Y-99778354D01*
X159685000Y-99778354D02*
X159613571Y-99921211D01*
X159613571Y-99921211D02*
X159613571Y-100206925D01*
X159613571Y-100206925D02*
X159685000Y-100349782D01*
X159685000Y-100349782D02*
X159756428Y-100421211D01*
X159756428Y-100421211D02*
X159899285Y-100492639D01*
X159899285Y-100492639D02*
X160327857Y-100492639D01*
X160327857Y-100492639D02*
X160470714Y-100421211D01*
X160470714Y-100421211D02*
X160542142Y-100349782D01*
X160542142Y-100349782D02*
X160613571Y-100206925D01*
X160613571Y-100206925D02*
X160613571Y-99921211D01*
X160613571Y-99921211D02*
X160542142Y-99778354D01*
X159685000Y-98492639D02*
X159613571Y-98635496D01*
X159613571Y-98635496D02*
X159613571Y-98921211D01*
X159613571Y-98921211D02*
X159685000Y-99064068D01*
X159685000Y-99064068D02*
X159827857Y-99135496D01*
X159827857Y-99135496D02*
X160399285Y-99135496D01*
X160399285Y-99135496D02*
X160542142Y-99064068D01*
X160542142Y-99064068D02*
X160613571Y-98921211D01*
X160613571Y-98921211D02*
X160613571Y-98635496D01*
X160613571Y-98635496D02*
X160542142Y-98492639D01*
X160542142Y-98492639D02*
X160399285Y-98421211D01*
X160399285Y-98421211D02*
X160256428Y-98421211D01*
X160256428Y-98421211D02*
X160113571Y-99135496D01*
X159613571Y-97778354D02*
X160613571Y-97778354D01*
X160327857Y-97778354D02*
X160470714Y-97706925D01*
X160470714Y-97706925D02*
X160542142Y-97635497D01*
X160542142Y-97635497D02*
X160613571Y-97492639D01*
X160613571Y-97492639D02*
X160613571Y-97349782D01*
X161042142Y-96064068D02*
X161113571Y-96206926D01*
X161113571Y-96206926D02*
X161113571Y-96421211D01*
X161113571Y-96421211D02*
X161042142Y-96635497D01*
X161042142Y-96635497D02*
X160899285Y-96778354D01*
X160899285Y-96778354D02*
X160756428Y-96849783D01*
X160756428Y-96849783D02*
X160470714Y-96921211D01*
X160470714Y-96921211D02*
X160256428Y-96921211D01*
X160256428Y-96921211D02*
X159970714Y-96849783D01*
X159970714Y-96849783D02*
X159827857Y-96778354D01*
X159827857Y-96778354D02*
X159685000Y-96635497D01*
X159685000Y-96635497D02*
X159613571Y-96421211D01*
X159613571Y-96421211D02*
X159613571Y-96278354D01*
X159613571Y-96278354D02*
X159685000Y-96064068D01*
X159685000Y-96064068D02*
X159756428Y-95992640D01*
X159756428Y-95992640D02*
X160256428Y-95992640D01*
X160256428Y-95992640D02*
X160256428Y-96278354D01*
X159613571Y-95135497D02*
X159685000Y-95278354D01*
X159685000Y-95278354D02*
X159756428Y-95349783D01*
X159756428Y-95349783D02*
X159899285Y-95421211D01*
X159899285Y-95421211D02*
X160327857Y-95421211D01*
X160327857Y-95421211D02*
X160470714Y-95349783D01*
X160470714Y-95349783D02*
X160542142Y-95278354D01*
X160542142Y-95278354D02*
X160613571Y-95135497D01*
X160613571Y-95135497D02*
X160613571Y-94921211D01*
X160613571Y-94921211D02*
X160542142Y-94778354D01*
X160542142Y-94778354D02*
X160470714Y-94706926D01*
X160470714Y-94706926D02*
X160327857Y-94635497D01*
X160327857Y-94635497D02*
X159899285Y-94635497D01*
X159899285Y-94635497D02*
X159756428Y-94706926D01*
X159756428Y-94706926D02*
X159685000Y-94778354D01*
X159685000Y-94778354D02*
X159613571Y-94921211D01*
X159613571Y-94921211D02*
X159613571Y-95135497D01*
X158683571Y-104706924D02*
X157183571Y-104206924D01*
X157183571Y-104206924D02*
X158683571Y-103706924D01*
X157183571Y-102421210D02*
X157183571Y-103278353D01*
X157183571Y-102849782D02*
X158683571Y-102849782D01*
X158683571Y-102849782D02*
X158469285Y-102992639D01*
X158469285Y-102992639D02*
X158326428Y-103135496D01*
X158326428Y-103135496D02*
X158255000Y-103278353D01*
X157326428Y-101778354D02*
X157255000Y-101706925D01*
X157255000Y-101706925D02*
X157183571Y-101778354D01*
X157183571Y-101778354D02*
X157255000Y-101849782D01*
X157255000Y-101849782D02*
X157326428Y-101778354D01*
X157326428Y-101778354D02*
X157183571Y-101778354D01*
X157183571Y-100206925D02*
X157897857Y-100706925D01*
X157183571Y-101064068D02*
X158683571Y-101064068D01*
X158683571Y-101064068D02*
X158683571Y-100492639D01*
X158683571Y-100492639D02*
X158612142Y-100349782D01*
X158612142Y-100349782D02*
X158540714Y-100278353D01*
X158540714Y-100278353D02*
X158397857Y-100206925D01*
X158397857Y-100206925D02*
X158183571Y-100206925D01*
X158183571Y-100206925D02*
X158040714Y-100278353D01*
X158040714Y-100278353D02*
X157969285Y-100349782D01*
X157969285Y-100349782D02*
X157897857Y-100492639D01*
X157897857Y-100492639D02*
X157897857Y-101064068D01*
X158540714Y-99635496D02*
X158612142Y-99564068D01*
X158612142Y-99564068D02*
X158683571Y-99421211D01*
X158683571Y-99421211D02*
X158683571Y-99064068D01*
X158683571Y-99064068D02*
X158612142Y-98921211D01*
X158612142Y-98921211D02*
X158540714Y-98849782D01*
X158540714Y-98849782D02*
X158397857Y-98778353D01*
X158397857Y-98778353D02*
X158255000Y-98778353D01*
X158255000Y-98778353D02*
X158040714Y-98849782D01*
X158040714Y-98849782D02*
X157183571Y-99706925D01*
X157183571Y-99706925D02*
X157183571Y-98778353D01*
X157326428Y-96992640D02*
X157255000Y-96921211D01*
X157255000Y-96921211D02*
X157183571Y-96992640D01*
X157183571Y-96992640D02*
X157255000Y-97064068D01*
X157255000Y-97064068D02*
X157326428Y-96992640D01*
X157326428Y-96992640D02*
X157183571Y-96992640D01*
X158112142Y-96992640D02*
X158040714Y-96921211D01*
X158040714Y-96921211D02*
X157969285Y-96992640D01*
X157969285Y-96992640D02*
X158040714Y-97064068D01*
X158040714Y-97064068D02*
X158112142Y-96992640D01*
X158112142Y-96992640D02*
X157969285Y-96992640D01*
X156612142Y-96421211D02*
X156683571Y-96349782D01*
X156683571Y-96349782D02*
X156897857Y-96206925D01*
X156897857Y-96206925D02*
X157040714Y-96135497D01*
X157040714Y-96135497D02*
X157255000Y-96064068D01*
X157255000Y-96064068D02*
X157612142Y-95992639D01*
X157612142Y-95992639D02*
X157897857Y-95992639D01*
X157897857Y-95992639D02*
X158255000Y-96064068D01*
X158255000Y-96064068D02*
X158469285Y-96135497D01*
X158469285Y-96135497D02*
X158612142Y-96206925D01*
X158612142Y-96206925D02*
X158826428Y-96349782D01*
X158826428Y-96349782D02*
X158897857Y-96421211D01*
D11*
X142511263Y-94243470D02*
X142273168Y-94243470D01*
X142273168Y-94243470D02*
X142154120Y-94302994D01*
X142154120Y-94302994D02*
X142035073Y-94422042D01*
X142035073Y-94422042D02*
X141975549Y-94660137D01*
X141975549Y-94660137D02*
X141975549Y-95076804D01*
X141975549Y-95076804D02*
X142035073Y-95314899D01*
X142035073Y-95314899D02*
X142154120Y-95433947D01*
X142154120Y-95433947D02*
X142273168Y-95493470D01*
X142273168Y-95493470D02*
X142511263Y-95493470D01*
X142511263Y-95493470D02*
X142630311Y-95433947D01*
X142630311Y-95433947D02*
X142749358Y-95314899D01*
X142749358Y-95314899D02*
X142808882Y-95076804D01*
X142808882Y-95076804D02*
X142808882Y-94660137D01*
X142808882Y-94660137D02*
X142749358Y-94422042D01*
X142749358Y-94422042D02*
X142630311Y-94302994D01*
X142630311Y-94302994D02*
X142511263Y-94243470D01*
X140904120Y-94660137D02*
X140904120Y-95493470D01*
X141439834Y-94660137D02*
X141439834Y-95314899D01*
X141439834Y-95314899D02*
X141380311Y-95433947D01*
X141380311Y-95433947D02*
X141261263Y-95493470D01*
X141261263Y-95493470D02*
X141082692Y-95493470D01*
X141082692Y-95493470D02*
X140963644Y-95433947D01*
X140963644Y-95433947D02*
X140904120Y-95374423D01*
X140487454Y-94660137D02*
X140011263Y-94660137D01*
X140308882Y-94243470D02*
X140308882Y-95314899D01*
X140308882Y-95314899D02*
X140249359Y-95433947D01*
X140249359Y-95433947D02*
X140130311Y-95493470D01*
X140130311Y-95493470D02*
X140011263Y-95493470D01*
X142749358Y-99543470D02*
X142749358Y-98293470D01*
X142749358Y-98293470D02*
X142332692Y-99186327D01*
X142332692Y-99186327D02*
X141916025Y-98293470D01*
X141916025Y-98293470D02*
X141916025Y-99543470D01*
X141142216Y-99543470D02*
X141261264Y-99483947D01*
X141261264Y-99483947D02*
X141320787Y-99424423D01*
X141320787Y-99424423D02*
X141380311Y-99305375D01*
X141380311Y-99305375D02*
X141380311Y-98948232D01*
X141380311Y-98948232D02*
X141320787Y-98829185D01*
X141320787Y-98829185D02*
X141261264Y-98769661D01*
X141261264Y-98769661D02*
X141142216Y-98710137D01*
X141142216Y-98710137D02*
X140963645Y-98710137D01*
X140963645Y-98710137D02*
X140844597Y-98769661D01*
X140844597Y-98769661D02*
X140785073Y-98829185D01*
X140785073Y-98829185D02*
X140725549Y-98948232D01*
X140725549Y-98948232D02*
X140725549Y-99305375D01*
X140725549Y-99305375D02*
X140785073Y-99424423D01*
X140785073Y-99424423D02*
X140844597Y-99483947D01*
X140844597Y-99483947D02*
X140963645Y-99543470D01*
X140963645Y-99543470D02*
X141142216Y-99543470D01*
X139654121Y-99543470D02*
X139654121Y-98293470D01*
X139654121Y-99483947D02*
X139773169Y-99543470D01*
X139773169Y-99543470D02*
X140011264Y-99543470D01*
X140011264Y-99543470D02*
X140130312Y-99483947D01*
X140130312Y-99483947D02*
X140189835Y-99424423D01*
X140189835Y-99424423D02*
X140249359Y-99305375D01*
X140249359Y-99305375D02*
X140249359Y-98948232D01*
X140249359Y-98948232D02*
X140189835Y-98829185D01*
X140189835Y-98829185D02*
X140130312Y-98769661D01*
X140130312Y-98769661D02*
X140011264Y-98710137D01*
X140011264Y-98710137D02*
X139773169Y-98710137D01*
X139773169Y-98710137D02*
X139654121Y-98769661D01*
X138582693Y-99483947D02*
X138701741Y-99543470D01*
X138701741Y-99543470D02*
X138939836Y-99543470D01*
X138939836Y-99543470D02*
X139058883Y-99483947D01*
X139058883Y-99483947D02*
X139118407Y-99364899D01*
X139118407Y-99364899D02*
X139118407Y-98888708D01*
X139118407Y-98888708D02*
X139058883Y-98769661D01*
X139058883Y-98769661D02*
X138939836Y-98710137D01*
X138939836Y-98710137D02*
X138701741Y-98710137D01*
X138701741Y-98710137D02*
X138582693Y-98769661D01*
X138582693Y-98769661D02*
X138523169Y-98888708D01*
X138523169Y-98888708D02*
X138523169Y-99007756D01*
X138523169Y-99007756D02*
X139118407Y-99126804D01*
X142749358Y-103593470D02*
X142749358Y-102343470D01*
X142749358Y-102343470D02*
X142273168Y-102343470D01*
X142273168Y-102343470D02*
X142154120Y-102402994D01*
X142154120Y-102402994D02*
X142094597Y-102462518D01*
X142094597Y-102462518D02*
X142035073Y-102581566D01*
X142035073Y-102581566D02*
X142035073Y-102760137D01*
X142035073Y-102760137D02*
X142094597Y-102879185D01*
X142094597Y-102879185D02*
X142154120Y-102938708D01*
X142154120Y-102938708D02*
X142273168Y-102998232D01*
X142273168Y-102998232D02*
X142749358Y-102998232D01*
X140963644Y-102760137D02*
X140963644Y-103593470D01*
X141499358Y-102760137D02*
X141499358Y-103414899D01*
X141499358Y-103414899D02*
X141439835Y-103533947D01*
X141439835Y-103533947D02*
X141320787Y-103593470D01*
X141320787Y-103593470D02*
X141142216Y-103593470D01*
X141142216Y-103593470D02*
X141023168Y-103533947D01*
X141023168Y-103533947D02*
X140963644Y-103474423D01*
X140427930Y-103533947D02*
X140308883Y-103593470D01*
X140308883Y-103593470D02*
X140070787Y-103593470D01*
X140070787Y-103593470D02*
X139951740Y-103533947D01*
X139951740Y-103533947D02*
X139892216Y-103414899D01*
X139892216Y-103414899D02*
X139892216Y-103355375D01*
X139892216Y-103355375D02*
X139951740Y-103236327D01*
X139951740Y-103236327D02*
X140070787Y-103176804D01*
X140070787Y-103176804D02*
X140249359Y-103176804D01*
X140249359Y-103176804D02*
X140368406Y-103117280D01*
X140368406Y-103117280D02*
X140427930Y-102998232D01*
X140427930Y-102998232D02*
X140427930Y-102938708D01*
X140427930Y-102938708D02*
X140368406Y-102819661D01*
X140368406Y-102819661D02*
X140249359Y-102760137D01*
X140249359Y-102760137D02*
X140070787Y-102760137D01*
X140070787Y-102760137D02*
X139951740Y-102819661D01*
X139356501Y-103593470D02*
X139356501Y-102343470D01*
X138820787Y-103593470D02*
X138820787Y-102938708D01*
X138820787Y-102938708D02*
X138880311Y-102819661D01*
X138880311Y-102819661D02*
X138999359Y-102760137D01*
X138999359Y-102760137D02*
X139177930Y-102760137D01*
X139177930Y-102760137D02*
X139296978Y-102819661D01*
X139296978Y-102819661D02*
X139356501Y-102879185D01*
D12*
%TO.C,U1*%
X149107809Y-100625988D02*
X149107809Y-99695035D01*
X149107809Y-99695035D02*
X149162571Y-99585511D01*
X149162571Y-99585511D02*
X149217333Y-99530750D01*
X149217333Y-99530750D02*
X149326857Y-99475988D01*
X149326857Y-99475988D02*
X149545904Y-99475988D01*
X149545904Y-99475988D02*
X149655428Y-99530750D01*
X149655428Y-99530750D02*
X149710190Y-99585511D01*
X149710190Y-99585511D02*
X149764952Y-99695035D01*
X149764952Y-99695035D02*
X149764952Y-100625988D01*
X150914952Y-99475988D02*
X150257809Y-99475988D01*
X150586381Y-99475988D02*
X150586381Y-100625988D01*
X150586381Y-100625988D02*
X150476857Y-100461702D01*
X150476857Y-100461702D02*
X150367333Y-100352178D01*
X150367333Y-100352178D02*
X150257809Y-100297416D01*
D13*
X147600000Y-101950000D02*
X152400000Y-101950000D01*
X152400000Y-101950000D02*
X152400000Y-98050000D01*
X152400000Y-98050000D02*
X147600000Y-98050000D01*
X147600000Y-98050000D02*
X147600000Y-101950000D01*
X148486856Y-98751150D02*
G75*
G03*
X148486856Y-98751150I-247544J0D01*
G01*
%TO.C,J2*%
X145773000Y-96531999D02*
X145773000Y-95261999D01*
X145773000Y-95261999D02*
X144503000Y-95261999D01*
%TD*%
M02*
