%TF.GenerationSoftware,KiCad,Pcbnew,7.0.2*%
%TF.CreationDate,2023-10-18T18:01:29-04:00*%
%TF.ProjectId,encoder_go_v1_rev2,656e636f-6465-4725-9f67-6f5f76315f72,rev?*%
%TF.SameCoordinates,Original*%
%TF.FileFunction,Copper,L1,Top*%
%TF.FilePolarity,Positive*%
%FSLAX46Y46*%
G04 Gerber Fmt 4.6, Leading zero omitted, Abs format (unit mm)*
G04 Created by KiCad (PCBNEW 7.0.2) date 2023-10-18 18:01:29*
%MOMM*%
%LPD*%
G01*
G04 APERTURE LIST*
G04 Aperture macros list*
%AMRoundRect*
0 Rectangle with rounded corners*
0 $1 Rounding radius*
0 $2 $3 $4 $5 $6 $7 $8 $9 X,Y pos of 4 corners*
0 Add a 4 corners polygon primitive as box body*
4,1,4,$2,$3,$4,$5,$6,$7,$8,$9,$2,$3,0*
0 Add four circle primitives for the rounded corners*
1,1,$1+$1,$2,$3*
1,1,$1+$1,$4,$5*
1,1,$1+$1,$6,$7*
1,1,$1+$1,$8,$9*
0 Add four rect primitives between the rounded corners*
20,1,$1+$1,$2,$3,$4,$5,0*
20,1,$1+$1,$4,$5,$6,$7,0*
20,1,$1+$1,$6,$7,$8,$9,0*
20,1,$1+$1,$8,$9,$2,$3,0*%
G04 Aperture macros list end*
%TA.AperFunction,SMDPad,CuDef*%
%ADD10RoundRect,0.250000X-0.350000X-0.450000X0.350000X-0.450000X0.350000X0.450000X-0.350000X0.450000X0*%
%TD*%
%TA.AperFunction,SMDPad,CuDef*%
%ADD11RoundRect,0.250000X-0.337500X-0.475000X0.337500X-0.475000X0.337500X0.475000X-0.337500X0.475000X0*%
%TD*%
%TA.AperFunction,SMDPad,CuDef*%
%ADD12RoundRect,0.243750X0.243750X0.456250X-0.243750X0.456250X-0.243750X-0.456250X0.243750X-0.456250X0*%
%TD*%
%TA.AperFunction,SMDPad,CuDef*%
%ADD13R,1.550000X0.600000*%
%TD*%
%TA.AperFunction,SMDPad,CuDef*%
%ADD14R,1.800000X1.200000*%
%TD*%
%TA.AperFunction,SMDPad,CuDef*%
%ADD15R,2.200000X1.550000*%
%TD*%
%TA.AperFunction,ComponentPad*%
%ADD16R,1.700000X1.700000*%
%TD*%
%TA.AperFunction,ComponentPad*%
%ADD17O,1.700000X1.700000*%
%TD*%
%TA.AperFunction,ViaPad*%
%ADD18C,0.800000*%
%TD*%
%TA.AperFunction,Conductor*%
%ADD19C,0.500000*%
%TD*%
%TA.AperFunction,Conductor*%
%ADD20C,0.200000*%
%TD*%
G04 APERTURE END LIST*
D10*
%TO.P,R1,1*%
%TO.N,Net-(D1-A)*%
X147100318Y-95107832D03*
%TO.P,R1,2*%
%TO.N,GND*%
X149100318Y-95107832D03*
%TD*%
D11*
%TO.P,C1,1*%
%TO.N,+3.3V*%
X147066558Y-97070701D03*
%TO.P,C1,2*%
%TO.N,GND*%
X149141558Y-97070701D03*
%TD*%
D12*
%TO.P,D1,1,K*%
%TO.N,+3.3V*%
X149060501Y-92740999D03*
%TO.P,D1,2,A*%
%TO.N,Net-(D1-A)*%
X147185501Y-92740999D03*
%TD*%
D13*
%TO.P,J1,1,1*%
%TO.N,CS*%
X155812000Y-98187000D03*
%TO.P,J1,2,2*%
%TO.N,SCL*%
X155812000Y-99187000D03*
%TO.P,J1,3,3*%
%TO.N,SDA*%
X155812000Y-100187000D03*
%TO.P,J1,4,4*%
%TO.N,+3.3V*%
X155812000Y-101187000D03*
%TO.P,J1,5,5*%
%TO.N,GND*%
X155812000Y-102187000D03*
D14*
%TO.P,J1,S1,SHIELD*%
X158337000Y-96887000D03*
%TO.P,J1,S2,SHIELD__1*%
X158337000Y-103487000D03*
%TD*%
D15*
%TO.P,D2,1,1*%
%TO.N,+3.3V*%
X152445000Y-93486999D03*
%TO.P,D2,2,2*%
%TO.N,GND*%
X156445000Y-93486999D03*
%TD*%
D16*
%TO.P,J2,1,Pin_1*%
%TO.N,Net-(J2-Pin_1)*%
X144503000Y-96531999D03*
D17*
%TO.P,J2,2,Pin_2*%
%TO.N,Net-(J2-Pin_2)*%
X144503000Y-99071999D03*
%TO.P,J2,3,Pin_3*%
%TO.N,Net-(J2-Pin_3)*%
X144503000Y-101611999D03*
%TD*%
D18*
%TO.N,+3.3V*%
X154000000Y-96000000D03*
X150500000Y-94000000D03*
X147500000Y-98372499D03*
%TO.N,GND*%
X156350014Y-97043499D03*
X148500000Y-94000000D03*
X151099450Y-96305886D03*
X156399266Y-103487000D03*
%TO.N,SDA*%
X152400000Y-104140000D03*
%TO.N,SCL*%
X150368000Y-101092000D03*
%TO.N,CS*%
X148093836Y-101259094D03*
%TD*%
D19*
%TO.N,GND*%
X154979000Y-93486999D02*
X156445000Y-93486999D01*
X149906373Y-96305886D02*
X149141558Y-97070701D01*
X151099450Y-96305886D02*
X149906373Y-96305886D01*
X152160113Y-96305886D02*
X154979000Y-93486999D01*
X151099450Y-96305886D02*
X152160113Y-96305886D01*
%TO.N,+3.3V*%
X150500000Y-93500000D02*
X149740999Y-92740999D01*
X149740999Y-92740999D02*
X149060501Y-92740999D01*
X150500000Y-94000000D02*
X150500000Y-93500000D01*
%TO.N,GND*%
X149100318Y-94600318D02*
X149100318Y-95107832D01*
X148500000Y-94000000D02*
X149100318Y-94600318D01*
%TO.N,Net-(D1-A)*%
X147185501Y-92740999D02*
X147185501Y-95022649D01*
X147185501Y-95022649D02*
X147100318Y-95107832D01*
D20*
%TO.N,GND*%
X156506513Y-96887000D02*
X158337000Y-96887000D01*
X155812000Y-102899734D02*
X155812000Y-102187000D01*
X156399266Y-103487000D02*
X155812000Y-102899734D01*
X156399266Y-103487000D02*
X158337000Y-103487000D01*
X156350014Y-97043499D02*
X156506513Y-96887000D01*
%TO.N,SDA*%
X153416000Y-101908000D02*
X155137000Y-100187000D01*
X152400000Y-104140000D02*
X152908000Y-104140000D01*
X152908000Y-104140000D02*
X153416000Y-103632000D01*
X153416000Y-103632000D02*
X153416000Y-101908000D01*
X155137000Y-100187000D02*
X155812000Y-100187000D01*
%TO.N,SCL*%
X150368000Y-101092000D02*
X152597024Y-101092000D01*
X154502024Y-99187000D02*
X155812000Y-99187000D01*
X152597024Y-101092000D02*
X154502024Y-99187000D01*
%TO.N,CS*%
X148093836Y-101259094D02*
X149433124Y-99919806D01*
X152232562Y-99919806D02*
X153965368Y-98187000D01*
X153965368Y-98187000D02*
X155812000Y-98187000D01*
X149433124Y-99919806D02*
X152232562Y-99919806D01*
%TD*%
%TA.AperFunction,Conductor*%
%TO.N,+3.3V*%
G36*
X146151250Y-92019685D02*
G01*
X146197005Y-92072489D01*
X146207568Y-92136602D01*
X146205522Y-92156628D01*
X146197820Y-92232021D01*
X146197819Y-92232035D01*
X146197501Y-92235151D01*
X146197501Y-93246847D01*
X146197819Y-93249960D01*
X146197820Y-93249979D01*
X146207913Y-93348774D01*
X146262638Y-93513922D01*
X146353976Y-93662004D01*
X146398681Y-93706708D01*
X146432167Y-93768031D01*
X146435001Y-93794390D01*
X146435001Y-93901332D01*
X146415316Y-93968371D01*
X146376098Y-94006870D01*
X146281661Y-94065119D01*
X146157606Y-94189174D01*
X146065504Y-94338497D01*
X146010318Y-94505034D01*
X146000137Y-94604690D01*
X146000135Y-94604710D01*
X145999818Y-94607823D01*
X145999818Y-94610970D01*
X145999818Y-94610971D01*
X145999818Y-95338314D01*
X145980133Y-95405353D01*
X145927329Y-95451108D01*
X145858171Y-95461052D01*
X145794615Y-95432027D01*
X145776554Y-95412628D01*
X145710546Y-95324453D01*
X145595331Y-95238203D01*
X145460483Y-95187908D01*
X145400873Y-95181499D01*
X145397550Y-95181499D01*
X143608439Y-95181499D01*
X143608420Y-95181499D01*
X143605128Y-95181500D01*
X143601848Y-95181852D01*
X143601840Y-95181853D01*
X143545515Y-95187908D01*
X143410669Y-95238203D01*
X143295454Y-95324453D01*
X143209204Y-95439667D01*
X143178596Y-95521733D01*
X143158909Y-95574516D01*
X143152500Y-95634126D01*
X143152500Y-95637447D01*
X143152500Y-95637448D01*
X143152500Y-97426559D01*
X143152500Y-97426577D01*
X143152501Y-97429871D01*
X143152853Y-97433151D01*
X143152854Y-97433158D01*
X143158909Y-97489483D01*
X143174599Y-97531550D01*
X143209204Y-97624330D01*
X143295454Y-97739545D01*
X143410669Y-97825795D01*
X143515309Y-97864823D01*
X143542082Y-97874809D01*
X143598016Y-97916680D01*
X143622433Y-97982145D01*
X143607581Y-98050418D01*
X143586431Y-98078672D01*
X143464503Y-98200600D01*
X143328965Y-98394169D01*
X143229097Y-98608335D01*
X143167936Y-98836591D01*
X143147340Y-99071999D01*
X143167936Y-99307406D01*
X143212709Y-99474501D01*
X143229097Y-99535662D01*
X143328965Y-99749829D01*
X143464505Y-99943400D01*
X143631599Y-100110494D01*
X143817160Y-100240425D01*
X143860783Y-100295001D01*
X143867976Y-100364500D01*
X143836454Y-100426854D01*
X143817159Y-100443574D01*
X143631595Y-100573507D01*
X143464505Y-100740597D01*
X143328965Y-100934169D01*
X143229097Y-101148335D01*
X143167936Y-101376591D01*
X143147340Y-101611998D01*
X143167936Y-101847406D01*
X143206814Y-101992500D01*
X143229097Y-102075662D01*
X143328965Y-102289829D01*
X143464505Y-102483400D01*
X143631599Y-102650494D01*
X143825170Y-102786034D01*
X144039337Y-102885902D01*
X144267592Y-102947061D01*
X144267592Y-102947062D01*
X144502999Y-102967658D01*
X144502999Y-102967657D01*
X144503000Y-102967658D01*
X144738408Y-102947062D01*
X144966663Y-102885902D01*
X145180830Y-102786034D01*
X145374401Y-102650494D01*
X145541495Y-102483400D01*
X145677035Y-102289829D01*
X145776903Y-102075662D01*
X145838063Y-101847407D01*
X145858659Y-101611999D01*
X145838063Y-101376591D01*
X145806580Y-101259093D01*
X147188376Y-101259093D01*
X147208162Y-101447351D01*
X147266656Y-101627378D01*
X147361302Y-101791310D01*
X147487965Y-101931983D01*
X147641105Y-102043245D01*
X147814033Y-102120238D01*
X147999188Y-102159594D01*
X147999190Y-102159594D01*
X148188484Y-102159594D01*
X148311919Y-102133356D01*
X148373639Y-102120238D01*
X148546566Y-102043245D01*
X148678540Y-101947361D01*
X148699706Y-101931983D01*
X148721301Y-101908000D01*
X148826369Y-101791310D01*
X148921015Y-101627378D01*
X148979510Y-101447350D01*
X148999296Y-101259094D01*
X148999295Y-101259092D01*
X149000658Y-101246132D01*
X149003892Y-101246471D01*
X149012694Y-101198316D01*
X149035767Y-101166396D01*
X149256324Y-100945839D01*
X149317645Y-100912356D01*
X149387337Y-100917340D01*
X149443270Y-100959212D01*
X149467687Y-101024676D01*
X149467324Y-101046483D01*
X149462540Y-101091999D01*
X149482326Y-101280257D01*
X149540820Y-101460284D01*
X149635466Y-101624216D01*
X149762129Y-101764889D01*
X149915269Y-101876151D01*
X150088197Y-101953144D01*
X150273352Y-101992500D01*
X150273354Y-101992500D01*
X150462648Y-101992500D01*
X150586083Y-101966262D01*
X150647803Y-101953144D01*
X150820730Y-101876151D01*
X150973871Y-101764888D01*
X150986162Y-101751238D01*
X151002110Y-101733527D01*
X151061597Y-101696879D01*
X151094259Y-101692500D01*
X152549537Y-101692500D01*
X152565721Y-101693560D01*
X152597024Y-101697682D01*
X152682041Y-101686489D01*
X152751074Y-101697254D01*
X152803330Y-101743634D01*
X152822216Y-101810903D01*
X152821164Y-101825613D01*
X152810317Y-101907999D01*
X152814439Y-101939301D01*
X152815500Y-101955487D01*
X152815500Y-103154571D01*
X152795815Y-103221610D01*
X152743011Y-103267365D01*
X152673853Y-103277309D01*
X152665720Y-103275861D01*
X152494649Y-103239500D01*
X152494646Y-103239500D01*
X152305354Y-103239500D01*
X152305352Y-103239500D01*
X152120197Y-103278855D01*
X151947269Y-103355848D01*
X151794129Y-103467110D01*
X151667466Y-103607783D01*
X151572820Y-103771715D01*
X151514326Y-103951742D01*
X151494540Y-104140000D01*
X151514326Y-104328257D01*
X151572820Y-104508284D01*
X151667466Y-104672216D01*
X151794129Y-104812889D01*
X151947269Y-104924151D01*
X152120197Y-105001144D01*
X152305352Y-105040500D01*
X152305354Y-105040500D01*
X152494648Y-105040500D01*
X152618083Y-105014262D01*
X152679803Y-105001144D01*
X152852730Y-104924151D01*
X153005871Y-104812888D01*
X153078210Y-104732546D01*
X153122903Y-104700960D01*
X153210841Y-104664536D01*
X153210841Y-104664535D01*
X153210841Y-104664534D01*
X153218305Y-104661443D01*
X153227082Y-104652072D01*
X153336282Y-104568282D01*
X153355509Y-104543223D01*
X153366190Y-104531043D01*
X153807044Y-104090190D01*
X153819234Y-104079501D01*
X153844282Y-104060282D01*
X153940536Y-103934841D01*
X154001044Y-103788762D01*
X154016500Y-103671361D01*
X154021682Y-103632000D01*
X154017561Y-103600696D01*
X154016500Y-103584511D01*
X154016500Y-102208096D01*
X154036185Y-102141057D01*
X154052814Y-102120419D01*
X154324822Y-101848411D01*
X154386142Y-101814929D01*
X154455833Y-101819913D01*
X154511767Y-101861784D01*
X154536184Y-101927249D01*
X154536500Y-101936095D01*
X154536500Y-102531560D01*
X154536500Y-102531578D01*
X154536501Y-102534872D01*
X154542909Y-102594483D01*
X154593204Y-102729331D01*
X154679454Y-102844546D01*
X154794669Y-102930796D01*
X154929517Y-102981091D01*
X154989127Y-102987500D01*
X155115522Y-102987499D01*
X155182561Y-103007183D01*
X155228316Y-103059987D01*
X155230083Y-103064046D01*
X155287464Y-103202575D01*
X155383716Y-103328015D01*
X155408768Y-103347237D01*
X155420964Y-103357933D01*
X155457331Y-103394300D01*
X155490816Y-103455623D01*
X155491829Y-103474103D01*
X155492444Y-103474039D01*
X155513592Y-103675257D01*
X155572086Y-103855284D01*
X155666732Y-104019216D01*
X155793395Y-104159889D01*
X155946535Y-104271151D01*
X156119463Y-104348144D01*
X156304618Y-104387500D01*
X156304620Y-104387500D01*
X156493914Y-104387500D01*
X156617349Y-104361262D01*
X156679069Y-104348144D01*
X156834839Y-104278789D01*
X156904088Y-104269505D01*
X156967364Y-104299133D01*
X156984541Y-104317758D01*
X156993203Y-104329329D01*
X156993204Y-104329331D01*
X157079454Y-104444546D01*
X157194669Y-104530796D01*
X157329517Y-104581091D01*
X157389127Y-104587500D01*
X159284872Y-104587499D01*
X159344483Y-104581091D01*
X159479331Y-104530796D01*
X159594546Y-104444546D01*
X159680796Y-104329331D01*
X159731091Y-104194483D01*
X159737500Y-104134873D01*
X159737499Y-102839128D01*
X159731091Y-102779517D01*
X159680796Y-102644669D01*
X159594546Y-102529454D01*
X159479331Y-102443204D01*
X159344483Y-102392909D01*
X159284873Y-102386500D01*
X159281550Y-102386500D01*
X157392439Y-102386500D01*
X157392420Y-102386500D01*
X157389128Y-102386501D01*
X157385848Y-102386853D01*
X157385840Y-102386854D01*
X157329513Y-102392909D01*
X157254831Y-102420764D01*
X157185140Y-102425748D01*
X157123817Y-102392262D01*
X157090333Y-102330939D01*
X157087499Y-102304582D01*
X157087499Y-101842439D01*
X157087498Y-101842438D01*
X157087499Y-101839128D01*
X157081091Y-101779517D01*
X157062478Y-101729615D01*
X157057495Y-101659926D01*
X157062480Y-101642947D01*
X157080598Y-101594374D01*
X157086646Y-101538114D01*
X157087000Y-101531518D01*
X157087000Y-101437000D01*
X156835069Y-101437000D01*
X156791737Y-101429182D01*
X156694483Y-101392909D01*
X156634873Y-101386500D01*
X156631551Y-101386500D01*
X155686000Y-101386500D01*
X155618961Y-101366815D01*
X155573206Y-101314011D01*
X155562000Y-101262500D01*
X155562000Y-101111499D01*
X155581685Y-101044460D01*
X155634489Y-100998705D01*
X155686000Y-100987499D01*
X156631561Y-100987499D01*
X156634872Y-100987499D01*
X156694483Y-100981091D01*
X156791736Y-100944817D01*
X156835069Y-100937000D01*
X157087000Y-100937000D01*
X157087000Y-100842481D01*
X157086646Y-100835885D01*
X157080597Y-100779622D01*
X157062480Y-100731049D01*
X157057494Y-100661358D01*
X157062474Y-100644395D01*
X157081091Y-100594483D01*
X157087500Y-100534873D01*
X157087499Y-99839128D01*
X157081091Y-99779517D01*
X157062745Y-99730331D01*
X157057762Y-99660643D01*
X157062747Y-99643665D01*
X157081090Y-99594485D01*
X157081089Y-99594485D01*
X157081091Y-99594483D01*
X157087500Y-99534873D01*
X157087499Y-98839128D01*
X157081091Y-98779517D01*
X157062745Y-98730331D01*
X157057762Y-98660643D01*
X157062747Y-98643665D01*
X157081090Y-98594485D01*
X157081089Y-98594485D01*
X157081091Y-98594483D01*
X157087500Y-98534873D01*
X157087499Y-98069415D01*
X157107183Y-98002378D01*
X157159987Y-97956623D01*
X157229146Y-97946679D01*
X157254827Y-97953233D01*
X157329517Y-97981091D01*
X157389127Y-97987500D01*
X159284872Y-97987499D01*
X159344483Y-97981091D01*
X159479331Y-97930796D01*
X159594546Y-97844546D01*
X159680796Y-97729331D01*
X159731091Y-97594483D01*
X159737500Y-97534873D01*
X159737499Y-96239128D01*
X159731091Y-96179517D01*
X159680796Y-96044669D01*
X159594546Y-95929454D01*
X159479331Y-95843204D01*
X159344483Y-95792909D01*
X159284873Y-95786500D01*
X159281550Y-95786500D01*
X157392439Y-95786500D01*
X157392420Y-95786500D01*
X157389128Y-95786501D01*
X157385848Y-95786853D01*
X157385840Y-95786854D01*
X157329515Y-95792909D01*
X157194669Y-95843204D01*
X157079454Y-95929454D01*
X156993204Y-96044669D01*
X156943514Y-96177894D01*
X156901642Y-96233827D01*
X156836178Y-96258244D01*
X156776896Y-96247839D01*
X156629816Y-96182354D01*
X156444662Y-96142999D01*
X156444660Y-96142999D01*
X156255368Y-96142999D01*
X156255366Y-96142999D01*
X156070211Y-96182354D01*
X155897283Y-96259347D01*
X155744143Y-96370609D01*
X155617480Y-96511282D01*
X155522834Y-96675214D01*
X155464340Y-96855241D01*
X155444554Y-97043498D01*
X155444554Y-97043499D01*
X155464340Y-97231755D01*
X155464340Y-97231757D01*
X155465703Y-97244717D01*
X155462477Y-97245056D01*
X155463870Y-97294040D01*
X155427781Y-97353868D01*
X155365075Y-97384687D01*
X155343948Y-97386500D01*
X154992439Y-97386500D01*
X154992420Y-97386500D01*
X154989128Y-97386501D01*
X154985848Y-97386853D01*
X154985840Y-97386854D01*
X154929515Y-97392909D01*
X154794669Y-97443204D01*
X154732850Y-97489482D01*
X154679454Y-97529454D01*
X154673946Y-97536811D01*
X154618014Y-97578681D01*
X154574680Y-97586500D01*
X154012855Y-97586500D01*
X153996670Y-97585439D01*
X153992744Y-97584922D01*
X153965367Y-97581317D01*
X153856057Y-97595709D01*
X153808605Y-97601956D01*
X153662529Y-97662462D01*
X153621490Y-97693953D01*
X153537086Y-97758718D01*
X153537084Y-97758719D01*
X153537083Y-97758721D01*
X153517858Y-97783774D01*
X153507166Y-97795965D01*
X152020146Y-99282987D01*
X151958823Y-99316472D01*
X151932465Y-99319306D01*
X149480611Y-99319306D01*
X149464426Y-99318245D01*
X149460500Y-99317728D01*
X149433123Y-99314123D01*
X149255035Y-99337568D01*
X149254228Y-99338716D01*
X149224455Y-99356262D01*
X149130281Y-99395270D01*
X149004840Y-99491524D01*
X148985618Y-99516576D01*
X148974924Y-99528770D01*
X148181420Y-100322275D01*
X148120097Y-100355760D01*
X148093739Y-100358594D01*
X147999188Y-100358594D01*
X147814033Y-100397949D01*
X147641105Y-100474942D01*
X147487965Y-100586204D01*
X147361302Y-100726877D01*
X147266656Y-100890809D01*
X147208162Y-101070836D01*
X147188376Y-101259093D01*
X145806580Y-101259093D01*
X145776903Y-101148336D01*
X145677035Y-100934170D01*
X145541495Y-100740598D01*
X145374401Y-100573504D01*
X145188839Y-100443572D01*
X145145216Y-100388997D01*
X145138022Y-100319499D01*
X145169545Y-100257144D01*
X145188837Y-100240427D01*
X145374401Y-100110494D01*
X145541495Y-99943400D01*
X145677035Y-99749829D01*
X145776903Y-99535662D01*
X145838063Y-99307407D01*
X145858659Y-99071999D01*
X145838063Y-98836591D01*
X145776903Y-98608336D01*
X145677035Y-98394170D01*
X145541495Y-98200598D01*
X145419569Y-98078672D01*
X145386084Y-98017349D01*
X145391068Y-97947657D01*
X145432940Y-97891724D01*
X145463915Y-97874809D01*
X145595331Y-97825795D01*
X145710546Y-97739545D01*
X145771106Y-97658646D01*
X145827039Y-97616775D01*
X145896731Y-97611791D01*
X145958054Y-97645276D01*
X145988079Y-97693953D01*
X146044700Y-97864823D01*
X146136741Y-98014046D01*
X146260712Y-98138017D01*
X146409935Y-98230058D01*
X146576361Y-98285207D01*
X146675948Y-98295381D01*
X146682226Y-98295700D01*
X146816557Y-98295700D01*
X146816558Y-98295699D01*
X146816558Y-96944701D01*
X146836243Y-96877662D01*
X146889047Y-96831907D01*
X146940558Y-96820701D01*
X147192558Y-96820701D01*
X147259597Y-96840386D01*
X147305352Y-96893190D01*
X147316558Y-96944701D01*
X147316558Y-98295700D01*
X147450887Y-98295700D01*
X147457169Y-98295379D01*
X147556753Y-98285207D01*
X147723180Y-98230058D01*
X147872403Y-98138017D01*
X147996371Y-98014049D01*
X147998222Y-98011049D01*
X148050168Y-97964322D01*
X148119130Y-97953097D01*
X148183214Y-97980937D01*
X148209304Y-98011046D01*
X148211348Y-98014360D01*
X148335400Y-98138412D01*
X148335402Y-98138413D01*
X148484724Y-98230515D01*
X148596075Y-98267413D01*
X148651260Y-98285700D01*
X148750916Y-98295881D01*
X148750917Y-98295881D01*
X148754049Y-98296201D01*
X149102963Y-98296200D01*
X149170002Y-98315884D01*
X149192384Y-98334294D01*
X149201943Y-98344244D01*
X149698665Y-98350453D01*
X149698665Y-98350452D01*
X149698667Y-98350453D01*
X149725759Y-98334294D01*
X149899749Y-98230515D01*
X149966000Y-98190999D01*
X149966000Y-98171489D01*
X149985685Y-98104450D01*
X150002319Y-98083807D01*
X150016709Y-98069417D01*
X150071770Y-98014357D01*
X150163872Y-97865035D01*
X150219057Y-97698498D01*
X150229558Y-97595710D01*
X150229557Y-97180385D01*
X150249241Y-97113347D01*
X150302045Y-97067592D01*
X150353557Y-97056386D01*
X150560113Y-97056386D01*
X150627152Y-97076071D01*
X150633000Y-97080069D01*
X150646721Y-97090038D01*
X150819647Y-97167030D01*
X151004802Y-97206386D01*
X151004804Y-97206386D01*
X151194098Y-97206386D01*
X151317533Y-97180148D01*
X151379253Y-97167030D01*
X151552180Y-97090037D01*
X151565899Y-97080069D01*
X151631706Y-97056588D01*
X151638787Y-97056386D01*
X152096407Y-97056386D01*
X152114377Y-97057695D01*
X152118433Y-97058288D01*
X152138136Y-97061175D01*
X152187481Y-97056858D01*
X152198289Y-97056386D01*
X152200213Y-97056386D01*
X152203822Y-97056386D01*
X152234663Y-97052780D01*
X152238144Y-97052425D01*
X152312910Y-97045885D01*
X152312910Y-97045884D01*
X152314165Y-97045775D01*
X152333175Y-97041560D01*
X152334363Y-97041127D01*
X152334368Y-97041127D01*
X152404933Y-97015443D01*
X152408208Y-97014305D01*
X152479447Y-96990700D01*
X152479449Y-96990698D01*
X152480649Y-96990301D01*
X152498181Y-96981813D01*
X152561909Y-96939899D01*
X152564952Y-96937960D01*
X152629842Y-96897936D01*
X152644937Y-96885639D01*
X152645805Y-96884718D01*
X152645809Y-96884716D01*
X152697298Y-96830139D01*
X152699744Y-96827621D01*
X154865938Y-94661427D01*
X154927259Y-94627944D01*
X154996951Y-94632928D01*
X155027923Y-94649840D01*
X155102669Y-94705795D01*
X155237517Y-94756090D01*
X155297127Y-94762499D01*
X157592872Y-94762498D01*
X157652483Y-94756090D01*
X157787331Y-94705795D01*
X157902546Y-94619545D01*
X157988796Y-94504330D01*
X158039091Y-94369482D01*
X158045500Y-94309872D01*
X158045499Y-92719326D01*
X158065184Y-92652288D01*
X158117987Y-92606533D01*
X158187146Y-92596589D01*
X158248881Y-92624067D01*
X158658352Y-92965293D01*
X160455382Y-94462819D01*
X160494281Y-94520858D01*
X160499999Y-94558078D01*
X160500000Y-104448637D01*
X160480315Y-104515676D01*
X160463681Y-104536318D01*
X159536319Y-105463681D01*
X159474996Y-105497166D01*
X159448638Y-105500000D01*
X156500000Y-105500000D01*
X153000000Y-105500000D01*
X147000000Y-105500000D01*
X143500000Y-105500000D01*
X140551362Y-105500000D01*
X140484323Y-105480315D01*
X140463681Y-105463681D01*
X139536319Y-104536319D01*
X139502834Y-104474996D01*
X139500000Y-104448638D01*
X139500000Y-94558078D01*
X139519685Y-94491039D01*
X139544617Y-94462819D01*
X139656622Y-94369482D01*
X141717254Y-92652288D01*
X142465511Y-92028741D01*
X142529614Y-92000945D01*
X142544894Y-92000000D01*
X146084211Y-92000000D01*
X146151250Y-92019685D01*
G37*
%TD.AperFunction*%
%TA.AperFunction,Conductor*%
G36*
X151202933Y-92019685D02*
G01*
X151248688Y-92072489D01*
X151258632Y-92141647D01*
X151229607Y-92205203D01*
X151179228Y-92240182D01*
X151102910Y-92268646D01*
X150987811Y-92354810D01*
X150901647Y-92469909D01*
X150851400Y-92604627D01*
X150845354Y-92660866D01*
X150845000Y-92667480D01*
X150845000Y-93236999D01*
X152571000Y-93236999D01*
X152638039Y-93256684D01*
X152683794Y-93309488D01*
X152695000Y-93360999D01*
X152695000Y-93612999D01*
X152675315Y-93680038D01*
X152622511Y-93725793D01*
X152571000Y-93736999D01*
X150845000Y-93736999D01*
X150845000Y-94306517D01*
X150845354Y-94313131D01*
X150851400Y-94369370D01*
X150901647Y-94504088D01*
X150987811Y-94619187D01*
X151102910Y-94705351D01*
X151237628Y-94755598D01*
X151293867Y-94761644D01*
X151300482Y-94761999D01*
X152343270Y-94761999D01*
X152410309Y-94781684D01*
X152456064Y-94834488D01*
X152466008Y-94903646D01*
X152436983Y-94967202D01*
X152430951Y-94973680D01*
X151885564Y-95519067D01*
X151824241Y-95552552D01*
X151797883Y-95555386D01*
X151638787Y-95555386D01*
X151571748Y-95535701D01*
X151565900Y-95531703D01*
X151552178Y-95521733D01*
X151379252Y-95444741D01*
X151194098Y-95405386D01*
X151194096Y-95405386D01*
X151004804Y-95405386D01*
X151004802Y-95405386D01*
X150819647Y-95444741D01*
X150646721Y-95521733D01*
X150633000Y-95531703D01*
X150567194Y-95555184D01*
X150560113Y-95555386D01*
X150324818Y-95555386D01*
X150257779Y-95535701D01*
X150212024Y-95482897D01*
X150200818Y-95431386D01*
X150200817Y-94610973D01*
X150200817Y-94610971D01*
X150200817Y-94607824D01*
X150190317Y-94505035D01*
X150135132Y-94338498D01*
X150043030Y-94189176D01*
X150043029Y-94189174D01*
X149918975Y-94065120D01*
X149786015Y-93983111D01*
X149739290Y-93931164D01*
X149728067Y-93862201D01*
X149755910Y-93798119D01*
X149763430Y-93789890D01*
X149891631Y-93661689D01*
X149982906Y-93513709D01*
X150037594Y-93348672D01*
X150047681Y-93249937D01*
X150048001Y-93243659D01*
X150048001Y-92990999D01*
X148934501Y-92990999D01*
X148867462Y-92971314D01*
X148821707Y-92918510D01*
X148810501Y-92866999D01*
X148810501Y-92614999D01*
X148830186Y-92547960D01*
X148882990Y-92502205D01*
X148934501Y-92490999D01*
X150048001Y-92490999D01*
X150048001Y-92238338D01*
X150047681Y-92232060D01*
X150037929Y-92136603D01*
X150050698Y-92067910D01*
X150098579Y-92017025D01*
X150161287Y-92000000D01*
X151135894Y-92000000D01*
X151202933Y-92019685D01*
G37*
%TD.AperFunction*%
%TD*%
M02*
