%TF.GenerationSoftware,KiCad,Pcbnew,7.0.2*%
%TF.CreationDate,2023-07-22T23:42:46-04:00*%
%TF.ProjectId,encoder_go_v1_rev1,656e636f-6465-4725-9f67-6f5f76315f72,rev?*%
%TF.SameCoordinates,Original*%
%TF.FileFunction,Legend,Top*%
%TF.FilePolarity,Positive*%
%FSLAX46Y46*%
G04 Gerber Fmt 4.6, Leading zero omitted, Abs format (unit mm)*
G04 Created by KiCad (PCBNEW 7.0.2) date 2023-07-22 23:42:46*
%MOMM*%
%LPD*%
G01*
G04 APERTURE LIST*
%ADD10C,0.160000*%
%ADD11C,0.254000*%
%ADD12C,0.120000*%
%ADD13C,0.200000*%
G04 APERTURE END LIST*
D10*
%TO.C,R1*%
X146943447Y-96720342D02*
X146560114Y-96172723D01*
X146286304Y-96720342D02*
X146286304Y-95570342D01*
X146286304Y-95570342D02*
X146724399Y-95570342D01*
X146724399Y-95570342D02*
X146833923Y-95625104D01*
X146833923Y-95625104D02*
X146888685Y-95679866D01*
X146888685Y-95679866D02*
X146943447Y-95789390D01*
X146943447Y-95789390D02*
X146943447Y-95953676D01*
X146943447Y-95953676D02*
X146888685Y-96063200D01*
X146888685Y-96063200D02*
X146833923Y-96117961D01*
X146833923Y-96117961D02*
X146724399Y-96172723D01*
X146724399Y-96172723D02*
X146286304Y-96172723D01*
X148038685Y-96720342D02*
X147381542Y-96720342D01*
X147710114Y-96720342D02*
X147710114Y-95570342D01*
X147710114Y-95570342D02*
X147600590Y-95734628D01*
X147600590Y-95734628D02*
X147491066Y-95844152D01*
X147491066Y-95844152D02*
X147381542Y-95898914D01*
%TO.C,D1*%
X146349189Y-91408009D02*
X146349189Y-90258009D01*
X146349189Y-90258009D02*
X146622999Y-90258009D01*
X146622999Y-90258009D02*
X146787284Y-90312771D01*
X146787284Y-90312771D02*
X146896808Y-90422295D01*
X146896808Y-90422295D02*
X146951570Y-90531819D01*
X146951570Y-90531819D02*
X147006332Y-90750867D01*
X147006332Y-90750867D02*
X147006332Y-90915152D01*
X147006332Y-90915152D02*
X146951570Y-91134200D01*
X146951570Y-91134200D02*
X146896808Y-91243724D01*
X146896808Y-91243724D02*
X146787284Y-91353248D01*
X146787284Y-91353248D02*
X146622999Y-91408009D01*
X146622999Y-91408009D02*
X146349189Y-91408009D01*
X148101570Y-91408009D02*
X147444427Y-91408009D01*
X147772999Y-91408009D02*
X147772999Y-90258009D01*
X147772999Y-90258009D02*
X147663475Y-90422295D01*
X147663475Y-90422295D02*
X147553951Y-90531819D01*
X147553951Y-90531819D02*
X147444427Y-90586581D01*
%TO.C,C1*%
X151767333Y-97820486D02*
X151712571Y-97875248D01*
X151712571Y-97875248D02*
X151548285Y-97930009D01*
X151548285Y-97930009D02*
X151438761Y-97930009D01*
X151438761Y-97930009D02*
X151274476Y-97875248D01*
X151274476Y-97875248D02*
X151164952Y-97765724D01*
X151164952Y-97765724D02*
X151110190Y-97656200D01*
X151110190Y-97656200D02*
X151055428Y-97437152D01*
X151055428Y-97437152D02*
X151055428Y-97272867D01*
X151055428Y-97272867D02*
X151110190Y-97053819D01*
X151110190Y-97053819D02*
X151164952Y-96944295D01*
X151164952Y-96944295D02*
X151274476Y-96834771D01*
X151274476Y-96834771D02*
X151438761Y-96780009D01*
X151438761Y-96780009D02*
X151548285Y-96780009D01*
X151548285Y-96780009D02*
X151712571Y-96834771D01*
X151712571Y-96834771D02*
X151767333Y-96889533D01*
X152862571Y-97930009D02*
X152205428Y-97930009D01*
X152534000Y-97930009D02*
X152534000Y-96780009D01*
X152534000Y-96780009D02*
X152424476Y-96944295D01*
X152424476Y-96944295D02*
X152314952Y-97053819D01*
X152314952Y-97053819D02*
X152205428Y-97108581D01*
D11*
%TO.C,D2*%
X153507618Y-90824525D02*
X153507618Y-89554525D01*
X153507618Y-89554525D02*
X153809999Y-89554525D01*
X153809999Y-89554525D02*
X153991428Y-89615001D01*
X153991428Y-89615001D02*
X154112380Y-89735953D01*
X154112380Y-89735953D02*
X154172857Y-89856906D01*
X154172857Y-89856906D02*
X154233333Y-90098810D01*
X154233333Y-90098810D02*
X154233333Y-90280239D01*
X154233333Y-90280239D02*
X154172857Y-90522144D01*
X154172857Y-90522144D02*
X154112380Y-90643096D01*
X154112380Y-90643096D02*
X153991428Y-90764049D01*
X153991428Y-90764049D02*
X153809999Y-90824525D01*
X153809999Y-90824525D02*
X153507618Y-90824525D01*
X154717142Y-89675477D02*
X154777618Y-89615001D01*
X154777618Y-89615001D02*
X154898571Y-89554525D01*
X154898571Y-89554525D02*
X155200952Y-89554525D01*
X155200952Y-89554525D02*
X155321904Y-89615001D01*
X155321904Y-89615001D02*
X155382380Y-89675477D01*
X155382380Y-89675477D02*
X155442857Y-89796429D01*
X155442857Y-89796429D02*
X155442857Y-89917382D01*
X155442857Y-89917382D02*
X155382380Y-90098810D01*
X155382380Y-90098810D02*
X154656666Y-90824525D01*
X154656666Y-90824525D02*
X155442857Y-90824525D01*
D10*
%TO.C,J1*%
X152487010Y-100585332D02*
X153308439Y-100585332D01*
X153308439Y-100585332D02*
X153472725Y-100640093D01*
X153472725Y-100640093D02*
X153582249Y-100749617D01*
X153582249Y-100749617D02*
X153637010Y-100913903D01*
X153637010Y-100913903D02*
X153637010Y-101023427D01*
X153637010Y-99435332D02*
X153637010Y-100092475D01*
X153637010Y-99763903D02*
X152487010Y-99763903D01*
X152487010Y-99763903D02*
X152651296Y-99873427D01*
X152651296Y-99873427D02*
X152760820Y-99982951D01*
X152760820Y-99982951D02*
X152815582Y-100092475D01*
D12*
%TO.C,R1*%
X147446677Y-94227832D02*
X147753959Y-94227832D01*
X147446677Y-94987832D02*
X147753959Y-94987832D01*
%TO.C,D1*%
X148808001Y-93700999D02*
X148808001Y-91780999D01*
X148808001Y-91780999D02*
X146123001Y-91780999D01*
X146123001Y-93700999D02*
X148808001Y-93700999D01*
%TO.C,C1*%
X149823164Y-97181998D02*
X150038836Y-97181998D01*
X149823164Y-97901998D02*
X150038836Y-97901998D01*
D13*
%TO.C,D2*%
X151945000Y-93748999D02*
X156945000Y-93748999D01*
X156945000Y-91224999D02*
X151945000Y-91224999D01*
D12*
%TO.C,J1*%
X155294999Y-105686999D02*
X155294999Y-103886999D01*
X156744999Y-105686999D02*
X155294999Y-105686999D01*
X159564999Y-104416999D02*
X159564999Y-95986999D01*
X155294999Y-103886999D02*
X154304999Y-103886999D01*
X155294999Y-94716999D02*
X155294999Y-96516999D01*
X156744999Y-94716999D02*
X155294999Y-94716999D01*
%TD*%
M02*
