%TF.GenerationSoftware,KiCad,Pcbnew,7.0.2*%
%TF.CreationDate,2023-07-22T23:42:45-04:00*%
%TF.ProjectId,encoder_go_v1_rev1,656e636f-6465-4725-9f67-6f5f76315f72,rev?*%
%TF.SameCoordinates,Original*%
%TF.FileFunction,Copper,L1,Top*%
%TF.FilePolarity,Positive*%
%FSLAX46Y46*%
G04 Gerber Fmt 4.6, Leading zero omitted, Abs format (unit mm)*
G04 Created by KiCad (PCBNEW 7.0.2) date 2023-07-22 23:42:45*
%MOMM*%
%LPD*%
G01*
G04 APERTURE LIST*
G04 Aperture macros list*
%AMRoundRect*
0 Rectangle with rounded corners*
0 $1 Rounding radius*
0 $2 $3 $4 $5 $6 $7 $8 $9 X,Y pos of 4 corners*
0 Add a 4 corners polygon primitive as box body*
4,1,4,$2,$3,$4,$5,$6,$7,$8,$9,$2,$3,0*
0 Add four circle primitives for the rounded corners*
1,1,$1+$1,$2,$3*
1,1,$1+$1,$4,$5*
1,1,$1+$1,$6,$7*
1,1,$1+$1,$8,$9*
0 Add four rect primitives between the rounded corners*
20,1,$1+$1,$2,$3,$4,$5,0*
20,1,$1+$1,$4,$5,$6,$7,0*
20,1,$1+$1,$6,$7,$8,$9,0*
20,1,$1+$1,$8,$9,$2,$3,0*%
G04 Aperture macros list end*
%TA.AperFunction,SMDPad,CuDef*%
%ADD10RoundRect,0.135000X-0.135000X-0.185000X0.135000X-0.185000X0.135000X0.185000X-0.135000X0.185000X0*%
%TD*%
%TA.AperFunction,SMDPad,CuDef*%
%ADD11RoundRect,0.243750X0.243750X0.456250X-0.243750X0.456250X-0.243750X-0.456250X0.243750X-0.456250X0*%
%TD*%
%TA.AperFunction,SMDPad,CuDef*%
%ADD12RoundRect,0.140000X-0.140000X-0.170000X0.140000X-0.170000X0.140000X0.170000X-0.140000X0.170000X0*%
%TD*%
%TA.AperFunction,SMDPad,CuDef*%
%ADD13R,2.200000X1.550000*%
%TD*%
%TA.AperFunction,SMDPad,CuDef*%
%ADD14RoundRect,0.150000X0.700000X-0.150000X0.700000X0.150000X-0.700000X0.150000X-0.700000X-0.150000X0*%
%TD*%
%TA.AperFunction,SMDPad,CuDef*%
%ADD15RoundRect,0.250000X1.100000X-0.250000X1.100000X0.250000X-1.100000X0.250000X-1.100000X-0.250000X0*%
%TD*%
%TA.AperFunction,ComponentPad*%
%ADD16R,1.700000X1.700000*%
%TD*%
%TA.AperFunction,ComponentPad*%
%ADD17O,1.700000X1.700000*%
%TD*%
%TA.AperFunction,ViaPad*%
%ADD18C,0.800000*%
%TD*%
%TA.AperFunction,Conductor*%
%ADD19C,0.500000*%
%TD*%
%TA.AperFunction,Conductor*%
%ADD20C,0.200000*%
%TD*%
G04 APERTURE END LIST*
D10*
%TO.P,R1,1*%
%TO.N,Net-(D1-A)*%
X147090318Y-94607832D03*
%TO.P,R1,2*%
%TO.N,GND*%
X148110318Y-94607832D03*
%TD*%
D11*
%TO.P,D1,1,K*%
%TO.N,+3.3V*%
X148060501Y-92740999D03*
%TO.P,D1,2,A*%
%TO.N,Net-(D1-A)*%
X146185501Y-92740999D03*
%TD*%
D12*
%TO.P,C1,1*%
%TO.N,+3.3V*%
X149451000Y-97541998D03*
%TO.P,C1,2*%
%TO.N,GND*%
X150411000Y-97541998D03*
%TD*%
D13*
%TO.P,D2,1,1*%
%TO.N,+3.3V*%
X152445000Y-92486999D03*
%TO.P,D2,2,2*%
%TO.N,GND*%
X156445000Y-92486999D03*
%TD*%
D14*
%TO.P,J1,1,Pin_1*%
%TO.N,unconnected-(J1-Pin_1-Pad1)*%
X155154999Y-103326999D03*
%TO.P,J1,2,Pin_2*%
%TO.N,GND*%
X155154999Y-102076999D03*
%TO.P,J1,3,Pin_3*%
%TO.N,Net-(J1-Pin_3)*%
X155154999Y-100826999D03*
%TO.P,J1,4,Pin_4*%
%TO.N,Net-(J1-Pin_4)*%
X155154999Y-99576999D03*
%TO.P,J1,5,Pin_5*%
%TO.N,Net-(J1-Pin_5)*%
X155154999Y-98326999D03*
%TO.P,J1,6,Pin_6*%
%TO.N,+3.3V*%
X155154999Y-97076999D03*
D15*
%TO.P,J1,MP*%
%TO.N,N/C*%
X158354999Y-105176999D03*
X158354999Y-95226999D03*
%TD*%
D16*
%TO.P,J2,1,Pin_1*%
%TO.N,Net-(J2-Pin_1)*%
X144503000Y-96531999D03*
D17*
%TO.P,J2,2,Pin_2*%
%TO.N,Net-(J2-Pin_2)*%
X144503000Y-99071999D03*
%TO.P,J2,3,Pin_3*%
%TO.N,Net-(J2-Pin_3)*%
X144503000Y-101611999D03*
%TD*%
D18*
%TO.N,+3.3V*%
X148661135Y-96502259D03*
%TO.N,GND*%
X149216000Y-94440999D03*
X151065869Y-96289747D03*
X153466000Y-102190999D03*
%TO.N,Net-(J1-Pin_3)*%
X148093836Y-101259094D03*
%TO.N,Net-(J1-Pin_4)*%
X149445469Y-103710892D03*
%TO.N,Net-(J1-Pin_5)*%
X150716000Y-104440999D03*
%TD*%
D19*
%TO.N,+3.3V*%
X149451000Y-97541998D02*
X149451000Y-97292124D01*
X149451000Y-97292124D02*
X148661135Y-96502259D01*
%TO.N,GND*%
X149049167Y-94607832D02*
X149216000Y-94440999D01*
X150411000Y-96940999D02*
X150411000Y-97541998D01*
X151062252Y-96289747D02*
X150411000Y-96940999D01*
X155040999Y-102190999D02*
X155154999Y-102076999D01*
X151065869Y-96289747D02*
X151062252Y-96289747D01*
X152176252Y-96289747D02*
X155979000Y-92486999D01*
X151065869Y-96289747D02*
X152176252Y-96289747D01*
X155979000Y-92486999D02*
X156445000Y-92486999D01*
X153466000Y-102190999D02*
X155040999Y-102190999D01*
X148110318Y-94607832D02*
X149049167Y-94607832D01*
%TO.N,Net-(D1-A)*%
X146185501Y-93703015D02*
X147090318Y-94607832D01*
X146185501Y-92740999D02*
X146185501Y-93703015D01*
D20*
%TO.N,Net-(J1-Pin_3)*%
X155154999Y-100826999D02*
X148525931Y-100826999D01*
X148525931Y-100826999D02*
X148093836Y-101259094D01*
%TO.N,Net-(J1-Pin_4)*%
X155154999Y-99576999D02*
X155391395Y-99576999D01*
X156439380Y-99561695D02*
X156800863Y-99923178D01*
X153000000Y-103500000D02*
X149656361Y-103500000D01*
X155406699Y-99561695D02*
X156439380Y-99561695D01*
X149656361Y-103500000D02*
X149445469Y-103710892D01*
X156800863Y-99923178D02*
X156800863Y-103167531D01*
X156800863Y-103167531D02*
X155936395Y-104031999D01*
X155936395Y-104031999D02*
X153531999Y-104031999D01*
X155391395Y-99576999D02*
X155406699Y-99561695D01*
X153531999Y-104031999D02*
X153000000Y-103500000D01*
%TO.N,Net-(J1-Pin_5)*%
X157466000Y-103690999D02*
X156125000Y-105031999D01*
X156579364Y-98304363D02*
X157466000Y-99190999D01*
X155154999Y-98326999D02*
X155391395Y-98326999D01*
X155414031Y-98304363D02*
X156579364Y-98304363D01*
X155391395Y-98326999D02*
X155414031Y-98304363D01*
X152440999Y-104440999D02*
X150716000Y-104440999D01*
X156125000Y-105031999D02*
X153031999Y-105031999D01*
X153031999Y-105031999D02*
X152440999Y-104440999D01*
X157466000Y-99190999D02*
X157466000Y-103690999D01*
%TD*%
%TA.AperFunction,Conductor*%
%TO.N,+3.3V*%
G36*
X147019995Y-88019685D02*
G01*
X147040637Y-88036319D01*
X148375126Y-89370807D01*
X148408611Y-89432130D01*
X148410060Y-89440007D01*
X148435251Y-89607141D01*
X148474419Y-89734120D01*
X148505959Y-89836368D01*
X148610040Y-90052494D01*
X148745170Y-90250694D01*
X148908331Y-90426539D01*
X149095878Y-90576103D01*
X149303622Y-90696044D01*
X149457401Y-90756398D01*
X149514963Y-90778990D01*
X149526921Y-90783683D01*
X149760789Y-90837062D01*
X150000000Y-90854988D01*
X150239211Y-90837062D01*
X150473079Y-90783683D01*
X150696378Y-90696044D01*
X150904122Y-90576103D01*
X151091669Y-90426539D01*
X151254830Y-90250694D01*
X151389960Y-90052494D01*
X151415240Y-90000000D01*
X158394551Y-90000000D01*
X158414317Y-90251149D01*
X158473126Y-90496110D01*
X158521330Y-90612485D01*
X158569534Y-90728859D01*
X158701164Y-90943659D01*
X158864776Y-91135224D01*
X159056341Y-91298836D01*
X159271141Y-91430466D01*
X159503889Y-91526873D01*
X159748852Y-91585683D01*
X160000000Y-91605449D01*
X160251148Y-91585683D01*
X160496111Y-91526873D01*
X160728859Y-91430466D01*
X160943659Y-91298836D01*
X161135224Y-91135224D01*
X161298836Y-90943659D01*
X161430466Y-90728859D01*
X161526873Y-90496111D01*
X161585683Y-90251148D01*
X161605449Y-90000000D01*
X161585683Y-89748852D01*
X161526873Y-89503889D01*
X161430466Y-89271141D01*
X161298836Y-89056341D01*
X161135224Y-88864776D01*
X160943659Y-88701164D01*
X160728859Y-88569534D01*
X160612485Y-88521330D01*
X160496110Y-88473126D01*
X160251149Y-88414317D01*
X160000000Y-88394551D01*
X159748850Y-88414317D01*
X159503889Y-88473126D01*
X159271139Y-88569535D01*
X159056342Y-88701163D01*
X158864776Y-88864776D01*
X158701163Y-89056342D01*
X158569535Y-89271139D01*
X158473126Y-89503889D01*
X158414317Y-89748850D01*
X158394551Y-90000000D01*
X151415240Y-90000000D01*
X151494041Y-89836368D01*
X151564748Y-89607143D01*
X151589939Y-89440006D01*
X151619394Y-89376652D01*
X151624857Y-89370823D01*
X152959362Y-88036319D01*
X153020685Y-88002834D01*
X153047043Y-88000000D01*
X161876000Y-88000000D01*
X161943039Y-88019685D01*
X161988794Y-88072489D01*
X162000000Y-88124000D01*
X162000000Y-111876000D01*
X161980315Y-111943039D01*
X161927511Y-111988794D01*
X161876000Y-112000000D01*
X155797044Y-112000000D01*
X155730005Y-111980315D01*
X155709363Y-111963681D01*
X153745682Y-110000000D01*
X158394551Y-110000000D01*
X158414317Y-110251149D01*
X158473126Y-110496110D01*
X158486631Y-110528713D01*
X158569534Y-110728859D01*
X158701164Y-110943659D01*
X158864776Y-111135224D01*
X159056341Y-111298836D01*
X159271141Y-111430466D01*
X159503889Y-111526873D01*
X159748852Y-111585683D01*
X160000000Y-111605449D01*
X160251148Y-111585683D01*
X160496111Y-111526873D01*
X160728859Y-111430466D01*
X160943659Y-111298836D01*
X161135224Y-111135224D01*
X161298836Y-110943659D01*
X161430466Y-110728859D01*
X161526873Y-110496111D01*
X161585683Y-110251148D01*
X161605449Y-110000000D01*
X161585683Y-109748852D01*
X161526873Y-109503889D01*
X161430466Y-109271141D01*
X161298836Y-109056341D01*
X161135224Y-108864776D01*
X160943659Y-108701164D01*
X160728859Y-108569534D01*
X160612485Y-108521330D01*
X160496110Y-108473126D01*
X160251149Y-108414317D01*
X160000000Y-108394551D01*
X159748850Y-108414317D01*
X159503889Y-108473126D01*
X159271139Y-108569535D01*
X159056342Y-108701163D01*
X158864776Y-108864776D01*
X158701163Y-109056342D01*
X158569535Y-109271139D01*
X158473126Y-109503889D01*
X158414317Y-109748850D01*
X158394551Y-110000000D01*
X153745682Y-110000000D01*
X151624872Y-107879190D01*
X151591387Y-107817867D01*
X151589940Y-107810004D01*
X151564748Y-107642857D01*
X151494041Y-107413632D01*
X151389960Y-107197506D01*
X151254830Y-106999306D01*
X151091669Y-106823461D01*
X150904122Y-106673897D01*
X150904121Y-106673896D01*
X150696376Y-106553955D01*
X150473081Y-106466317D01*
X150239208Y-106412937D01*
X150000000Y-106395011D01*
X149760791Y-106412937D01*
X149526918Y-106466317D01*
X149303623Y-106553955D01*
X149095878Y-106673896D01*
X148908330Y-106823461D01*
X148745169Y-106999306D01*
X148610040Y-107197505D01*
X148505959Y-107413632D01*
X148435252Y-107642857D01*
X148410060Y-107809991D01*
X148380603Y-107873347D01*
X148375126Y-107879190D01*
X144290637Y-111963681D01*
X144229314Y-111997166D01*
X144202956Y-112000000D01*
X138124000Y-112000000D01*
X138056961Y-111980315D01*
X138011206Y-111927511D01*
X138000000Y-111876000D01*
X138000000Y-109999999D01*
X138394551Y-109999999D01*
X138414317Y-110251149D01*
X138473126Y-110496110D01*
X138486631Y-110528713D01*
X138569534Y-110728859D01*
X138701164Y-110943659D01*
X138864776Y-111135224D01*
X139056341Y-111298836D01*
X139271141Y-111430466D01*
X139503889Y-111526873D01*
X139748852Y-111585683D01*
X140000000Y-111605449D01*
X140251148Y-111585683D01*
X140496111Y-111526873D01*
X140728859Y-111430466D01*
X140943659Y-111298836D01*
X141135224Y-111135224D01*
X141298836Y-110943659D01*
X141430466Y-110728859D01*
X141526873Y-110496111D01*
X141585683Y-110251148D01*
X141605449Y-110000000D01*
X141585683Y-109748852D01*
X141526873Y-109503889D01*
X141430466Y-109271141D01*
X141298836Y-109056341D01*
X141135224Y-108864776D01*
X140943659Y-108701164D01*
X140728859Y-108569534D01*
X140612484Y-108521330D01*
X140496110Y-108473126D01*
X140251149Y-108414317D01*
X140000000Y-108394551D01*
X139748850Y-108414317D01*
X139503889Y-108473126D01*
X139271139Y-108569535D01*
X139056342Y-108701163D01*
X138864776Y-108864776D01*
X138701163Y-109056342D01*
X138569535Y-109271139D01*
X138473126Y-109503889D01*
X138414317Y-109748850D01*
X138394551Y-109999999D01*
X138000000Y-109999999D01*
X138000000Y-101611998D01*
X143147340Y-101611998D01*
X143167936Y-101847406D01*
X143209558Y-102002741D01*
X143229097Y-102075662D01*
X143328965Y-102289829D01*
X143464505Y-102483400D01*
X143631599Y-102650494D01*
X143825170Y-102786034D01*
X144039337Y-102885902D01*
X144267592Y-102947061D01*
X144267592Y-102947062D01*
X144502999Y-102967658D01*
X144502999Y-102967657D01*
X144503000Y-102967658D01*
X144738408Y-102947062D01*
X144966663Y-102885902D01*
X145180830Y-102786034D01*
X145374401Y-102650494D01*
X145541495Y-102483400D01*
X145677035Y-102289829D01*
X145776903Y-102075662D01*
X145838063Y-101847407D01*
X145858659Y-101611999D01*
X145838063Y-101376591D01*
X145806580Y-101259094D01*
X147188376Y-101259094D01*
X147208162Y-101447351D01*
X147266656Y-101627378D01*
X147361302Y-101791310D01*
X147487965Y-101931983D01*
X147641105Y-102043245D01*
X147814033Y-102120238D01*
X147999188Y-102159594D01*
X147999190Y-102159594D01*
X148188484Y-102159594D01*
X148311919Y-102133356D01*
X148373639Y-102120238D01*
X148546566Y-102043245D01*
X148546565Y-102043245D01*
X148699706Y-101931983D01*
X148826369Y-101791310D01*
X148921015Y-101627378D01*
X148958120Y-101513181D01*
X148997557Y-101455506D01*
X149061916Y-101428307D01*
X149076051Y-101427499D01*
X152663207Y-101427499D01*
X152730246Y-101447184D01*
X152776001Y-101499988D01*
X152785945Y-101569146D01*
X152756920Y-101632702D01*
X152755357Y-101634471D01*
X152733466Y-101658782D01*
X152638820Y-101822714D01*
X152580326Y-102002741D01*
X152560540Y-102190998D01*
X152580326Y-102379256D01*
X152638820Y-102559283D01*
X152727858Y-102713500D01*
X152744331Y-102781400D01*
X152721478Y-102847427D01*
X152666557Y-102890618D01*
X152620471Y-102899500D01*
X149863372Y-102899500D01*
X149812936Y-102888779D01*
X149725271Y-102849747D01*
X149540117Y-102810392D01*
X149540115Y-102810392D01*
X149350823Y-102810392D01*
X149350821Y-102810392D01*
X149165666Y-102849747D01*
X148992738Y-102926740D01*
X148839598Y-103038002D01*
X148712935Y-103178675D01*
X148618289Y-103342607D01*
X148559795Y-103522634D01*
X148540009Y-103710891D01*
X148559795Y-103899149D01*
X148618289Y-104079176D01*
X148712935Y-104243108D01*
X148839598Y-104383781D01*
X148992738Y-104495043D01*
X149165666Y-104572036D01*
X149350821Y-104611392D01*
X149350823Y-104611392D01*
X149540117Y-104611392D01*
X149696938Y-104578059D01*
X149766605Y-104583375D01*
X149822339Y-104625512D01*
X149840650Y-104661030D01*
X149888821Y-104809284D01*
X149983466Y-104973215D01*
X150110129Y-105113888D01*
X150263269Y-105225150D01*
X150436197Y-105302143D01*
X150621352Y-105341499D01*
X150621354Y-105341499D01*
X150810648Y-105341499D01*
X150934083Y-105315261D01*
X150995803Y-105302143D01*
X151168730Y-105225150D01*
X151321871Y-105113887D01*
X151321870Y-105113887D01*
X151350110Y-105082526D01*
X151409597Y-105045878D01*
X151442259Y-105041499D01*
X152140902Y-105041499D01*
X152207941Y-105061184D01*
X152228583Y-105077818D01*
X152573798Y-105423033D01*
X152584493Y-105435228D01*
X152603716Y-105460281D01*
X152722710Y-105551587D01*
X152727629Y-105555901D01*
X152729156Y-105556533D01*
X152729157Y-105556534D01*
X152729158Y-105556535D01*
X152875237Y-105617043D01*
X152953617Y-105627361D01*
X153031998Y-105637681D01*
X153031998Y-105637680D01*
X153031999Y-105637681D01*
X153063301Y-105633559D01*
X153079486Y-105632499D01*
X156077513Y-105632499D01*
X156093697Y-105633559D01*
X156125000Y-105637681D01*
X156281762Y-105617043D01*
X156374494Y-105578631D01*
X156443961Y-105571163D01*
X156506441Y-105602438D01*
X156539651Y-105654188D01*
X156570185Y-105746333D01*
X156570186Y-105746334D01*
X156662287Y-105895656D01*
X156786341Y-106019710D01*
X156786343Y-106019711D01*
X156935665Y-106111813D01*
X157047015Y-106148711D01*
X157102201Y-106166998D01*
X157201857Y-106177179D01*
X157201858Y-106177179D01*
X157204990Y-106177499D01*
X159505007Y-106177498D01*
X159607796Y-106166998D01*
X159774333Y-106111813D01*
X159923655Y-106019711D01*
X160047711Y-105895655D01*
X160139813Y-105746333D01*
X160194998Y-105579796D01*
X160205499Y-105477008D01*
X160205498Y-104876991D01*
X160194998Y-104774202D01*
X160139813Y-104607665D01*
X160047711Y-104458343D01*
X160047710Y-104458341D01*
X159923656Y-104334287D01*
X159774333Y-104242185D01*
X159607796Y-104186999D01*
X159508140Y-104176818D01*
X159508121Y-104176817D01*
X159505008Y-104176499D01*
X159501859Y-104176499D01*
X158100455Y-104176499D01*
X158033416Y-104156814D01*
X157987661Y-104104010D01*
X157977717Y-104034852D01*
X157985894Y-104005046D01*
X157990536Y-103993840D01*
X158051044Y-103847761D01*
X158066500Y-103730360D01*
X158071682Y-103690999D01*
X158067561Y-103659695D01*
X158066500Y-103643510D01*
X158066500Y-99238486D01*
X158067561Y-99222300D01*
X158071682Y-99190998D01*
X158056015Y-99071999D01*
X158051044Y-99034237D01*
X157990536Y-98888158D01*
X157990536Y-98888157D01*
X157918450Y-98794213D01*
X157894282Y-98762717D01*
X157869229Y-98743493D01*
X157857035Y-98732799D01*
X157037563Y-97913327D01*
X157026867Y-97901131D01*
X157007645Y-97876079D01*
X156882204Y-97779826D01*
X156736126Y-97719319D01*
X156618725Y-97703863D01*
X156579363Y-97698680D01*
X156562879Y-97700851D01*
X156493844Y-97690085D01*
X156441588Y-97643705D01*
X156422703Y-97576436D01*
X156439962Y-97514791D01*
X156456279Y-97487199D01*
X156502098Y-97329487D01*
X156502294Y-97326999D01*
X153807703Y-97326999D01*
X153807899Y-97329487D01*
X153853718Y-97487199D01*
X153943130Y-97638387D01*
X153960313Y-97706111D01*
X153943130Y-97764629D01*
X153853254Y-97916601D01*
X153807401Y-98074426D01*
X153804690Y-98108870D01*
X153804689Y-98108885D01*
X153804499Y-98111305D01*
X153804499Y-98542693D01*
X153804689Y-98545113D01*
X153804690Y-98545127D01*
X153807401Y-98579571D01*
X153853254Y-98737396D01*
X153942840Y-98888878D01*
X153960023Y-98956602D01*
X153942840Y-99015120D01*
X153853254Y-99166601D01*
X153807401Y-99324426D01*
X153804690Y-99358870D01*
X153804689Y-99358885D01*
X153804499Y-99361305D01*
X153804499Y-99792693D01*
X153804689Y-99795113D01*
X153804690Y-99795127D01*
X153807401Y-99829571D01*
X153853254Y-99987396D01*
X153883996Y-100039378D01*
X153901179Y-100107102D01*
X153879019Y-100173365D01*
X153824553Y-100217128D01*
X153777264Y-100226499D01*
X148573418Y-100226499D01*
X148557233Y-100225438D01*
X148553307Y-100224921D01*
X148525930Y-100221316D01*
X148490672Y-100225958D01*
X148486570Y-100226499D01*
X148427869Y-100234227D01*
X148369168Y-100241955D01*
X148223090Y-100302462D01*
X148183332Y-100332970D01*
X148118163Y-100358164D01*
X148107846Y-100358594D01*
X147999188Y-100358594D01*
X147814033Y-100397949D01*
X147641105Y-100474942D01*
X147487965Y-100586204D01*
X147361302Y-100726877D01*
X147266656Y-100890809D01*
X147208162Y-101070836D01*
X147188376Y-101259094D01*
X145806580Y-101259094D01*
X145776903Y-101148336D01*
X145677035Y-100934170D01*
X145541495Y-100740598D01*
X145374401Y-100573504D01*
X145188839Y-100443572D01*
X145145216Y-100388997D01*
X145138022Y-100319499D01*
X145169545Y-100257144D01*
X145188837Y-100240427D01*
X145374401Y-100110494D01*
X145541495Y-99943400D01*
X145677035Y-99749829D01*
X145776903Y-99535662D01*
X145838063Y-99307407D01*
X145858659Y-99071999D01*
X145838063Y-98836591D01*
X145776903Y-98608336D01*
X145677035Y-98394170D01*
X145541495Y-98200598D01*
X145419569Y-98078672D01*
X145386084Y-98017349D01*
X145391068Y-97947657D01*
X145432940Y-97891724D01*
X145463915Y-97874809D01*
X145595331Y-97825795D01*
X145710546Y-97739545D01*
X145796796Y-97624330D01*
X145847091Y-97489482D01*
X145853500Y-97429872D01*
X145853500Y-97323778D01*
X148669708Y-97323778D01*
X148671070Y-97339297D01*
X148671070Y-97801775D01*
X148672965Y-97809852D01*
X148718967Y-97968192D01*
X148801281Y-98107377D01*
X148915620Y-98221716D01*
X149054803Y-98304029D01*
X149218419Y-98351562D01*
X149235628Y-98345116D01*
X149246197Y-98344797D01*
X149677761Y-98350191D01*
X149698666Y-98350453D01*
X149698666Y-98350452D01*
X149698667Y-98350453D01*
X149698667Y-98350452D01*
X149701551Y-98349677D01*
X149724631Y-98339637D01*
X149847193Y-98304030D01*
X149867383Y-98292089D01*
X149935106Y-98274904D01*
X149993629Y-98292087D01*
X150014605Y-98304492D01*
X150170003Y-98349640D01*
X150170007Y-98349641D01*
X150206310Y-98352498D01*
X150208755Y-98352498D01*
X150613245Y-98352498D01*
X150615690Y-98352498D01*
X150651993Y-98349641D01*
X150807395Y-98304492D01*
X150946687Y-98222115D01*
X151061117Y-98107685D01*
X151143494Y-97968393D01*
X151188643Y-97812991D01*
X151191500Y-97776688D01*
X151191500Y-97307308D01*
X151190461Y-97294111D01*
X151204820Y-97225735D01*
X151253868Y-97175975D01*
X151288294Y-97163086D01*
X151345672Y-97150891D01*
X151345673Y-97150890D01*
X151345675Y-97150890D01*
X151518597Y-97073899D01*
X151518597Y-97073898D01*
X151518599Y-97073898D01*
X151532318Y-97063930D01*
X151598125Y-97040449D01*
X151605206Y-97040247D01*
X152112546Y-97040247D01*
X152130516Y-97041556D01*
X152134572Y-97042149D01*
X152154275Y-97045036D01*
X152203620Y-97040719D01*
X152214428Y-97040247D01*
X152216352Y-97040247D01*
X152219961Y-97040247D01*
X152250802Y-97036641D01*
X152254283Y-97036286D01*
X152329049Y-97029746D01*
X152329049Y-97029745D01*
X152330304Y-97029636D01*
X152349314Y-97025421D01*
X152350502Y-97024988D01*
X152350507Y-97024988D01*
X152421072Y-96999304D01*
X152424347Y-96998166D01*
X152495586Y-96974561D01*
X152495588Y-96974559D01*
X152496788Y-96974162D01*
X152514315Y-96965676D01*
X152515364Y-96964985D01*
X152515369Y-96964984D01*
X152578058Y-96923752D01*
X152581050Y-96921846D01*
X152644908Y-96882459D01*
X152644908Y-96882458D01*
X152645981Y-96881797D01*
X152661076Y-96869500D01*
X152661944Y-96868579D01*
X152661948Y-96868577D01*
X152701174Y-96826998D01*
X153807703Y-96826998D01*
X153807704Y-96826999D01*
X154904999Y-96826999D01*
X154904999Y-96276999D01*
X155404999Y-96276999D01*
X155404999Y-96826999D01*
X156502294Y-96826999D01*
X156502294Y-96826998D01*
X156502098Y-96824510D01*
X156456279Y-96666798D01*
X156372681Y-96525441D01*
X156256556Y-96409316D01*
X156115196Y-96325716D01*
X155957492Y-96279899D01*
X155923075Y-96277190D01*
X155918196Y-96276999D01*
X155404999Y-96276999D01*
X154904999Y-96276999D01*
X154391802Y-96276999D01*
X154386922Y-96277190D01*
X154352505Y-96279899D01*
X154194801Y-96325716D01*
X154053441Y-96409316D01*
X153937316Y-96525441D01*
X153853718Y-96666798D01*
X153807899Y-96824510D01*
X153807703Y-96826998D01*
X152701174Y-96826998D01*
X152713436Y-96814001D01*
X152715882Y-96811483D01*
X154003489Y-95523876D01*
X156504499Y-95523876D01*
X156504500Y-95527007D01*
X156504819Y-95530139D01*
X156504820Y-95530140D01*
X156514999Y-95629795D01*
X156570185Y-95796333D01*
X156662287Y-95945656D01*
X156786341Y-96069710D01*
X156786343Y-96069711D01*
X156935665Y-96161813D01*
X157047016Y-96198711D01*
X157102201Y-96216998D01*
X157201857Y-96227179D01*
X157201858Y-96227179D01*
X157204990Y-96227499D01*
X159505007Y-96227498D01*
X159607796Y-96216998D01*
X159774333Y-96161813D01*
X159923655Y-96069711D01*
X160047711Y-95945655D01*
X160139813Y-95796333D01*
X160194998Y-95629796D01*
X160205499Y-95527008D01*
X160205498Y-94926991D01*
X160194998Y-94824202D01*
X160139813Y-94657665D01*
X160047711Y-94508343D01*
X160047710Y-94508341D01*
X159923656Y-94384287D01*
X159774333Y-94292185D01*
X159607796Y-94236999D01*
X159508140Y-94226818D01*
X159508121Y-94226817D01*
X159505008Y-94226499D01*
X159501859Y-94226499D01*
X157208139Y-94226499D01*
X157208119Y-94226499D01*
X157204991Y-94226500D01*
X157201859Y-94226819D01*
X157201857Y-94226820D01*
X157102202Y-94236999D01*
X156935664Y-94292185D01*
X156786341Y-94384287D01*
X156662287Y-94508341D01*
X156570185Y-94657664D01*
X156514999Y-94824201D01*
X156504818Y-94923857D01*
X156504816Y-94923877D01*
X156504499Y-94926990D01*
X156504499Y-94930137D01*
X156504499Y-94930138D01*
X156504499Y-95523857D01*
X156504499Y-95523876D01*
X154003489Y-95523876D01*
X155728549Y-93798816D01*
X155789872Y-93765332D01*
X155816230Y-93762498D01*
X157589561Y-93762498D01*
X157592872Y-93762498D01*
X157652483Y-93756090D01*
X157787331Y-93705795D01*
X157902546Y-93619545D01*
X157988796Y-93504330D01*
X158039091Y-93369482D01*
X158045500Y-93309872D01*
X158045499Y-91664127D01*
X158039091Y-91604516D01*
X157988796Y-91469668D01*
X157902546Y-91354453D01*
X157787331Y-91268203D01*
X157652483Y-91217908D01*
X157600816Y-91212353D01*
X157596166Y-91211853D01*
X157596165Y-91211852D01*
X157592873Y-91211499D01*
X157589550Y-91211499D01*
X155300439Y-91211499D01*
X155300420Y-91211499D01*
X155297128Y-91211500D01*
X155293848Y-91211852D01*
X155293840Y-91211853D01*
X155237515Y-91217908D01*
X155102669Y-91268203D01*
X154987454Y-91354453D01*
X154901204Y-91469667D01*
X154850909Y-91604515D01*
X154850789Y-91605636D01*
X154844500Y-91664126D01*
X154844500Y-91667447D01*
X154844500Y-91667448D01*
X154844500Y-92508768D01*
X154824815Y-92575807D01*
X154808181Y-92596449D01*
X154256681Y-93147949D01*
X154195358Y-93181434D01*
X154125666Y-93176450D01*
X154069733Y-93134578D01*
X154045316Y-93069114D01*
X154045000Y-93060268D01*
X154045000Y-92736999D01*
X152695000Y-92736999D01*
X152695000Y-93761999D01*
X153343269Y-93761999D01*
X153410308Y-93781684D01*
X153456063Y-93834488D01*
X153466007Y-93903646D01*
X153436982Y-93967202D01*
X153430950Y-93973680D01*
X151901703Y-95502928D01*
X151840380Y-95536413D01*
X151814022Y-95539247D01*
X151605206Y-95539247D01*
X151538167Y-95519562D01*
X151532319Y-95515564D01*
X151518597Y-95505594D01*
X151345671Y-95428602D01*
X151160517Y-95389247D01*
X151160515Y-95389247D01*
X150971223Y-95389247D01*
X150971221Y-95389247D01*
X150786066Y-95428602D01*
X150613138Y-95505595D01*
X150459998Y-95616857D01*
X150333335Y-95757530D01*
X150238690Y-95921461D01*
X150185088Y-96086430D01*
X150154838Y-96135792D01*
X149925359Y-96365270D01*
X149911728Y-96377050D01*
X149892470Y-96391387D01*
X149860635Y-96429327D01*
X149853338Y-96437291D01*
X149851972Y-96438656D01*
X149851950Y-96438680D01*
X149849409Y-96441222D01*
X149847173Y-96444049D01*
X149847171Y-96444052D01*
X149830176Y-96465545D01*
X149827902Y-96468336D01*
X149778894Y-96526743D01*
X149768418Y-96543186D01*
X149736192Y-96612293D01*
X149734622Y-96615536D01*
X149719177Y-96646290D01*
X149671499Y-96697365D01*
X149616641Y-96714364D01*
X149252635Y-96738710D01*
X149221010Y-96731677D01*
X149054805Y-96779965D01*
X148915620Y-96862279D01*
X148801281Y-96976618D01*
X148718967Y-97115803D01*
X148673853Y-97271085D01*
X148673684Y-97273243D01*
X148671070Y-97284414D01*
X148671070Y-97301599D01*
X148670688Y-97311327D01*
X148669708Y-97323778D01*
X145853500Y-97323778D01*
X145853499Y-95634127D01*
X145847091Y-95574516D01*
X145796796Y-95439668D01*
X145710546Y-95324453D01*
X145595331Y-95238203D01*
X145460483Y-95187908D01*
X145400873Y-95181499D01*
X145397550Y-95181499D01*
X143608439Y-95181499D01*
X143608420Y-95181499D01*
X143605128Y-95181500D01*
X143601848Y-95181852D01*
X143601840Y-95181853D01*
X143545515Y-95187908D01*
X143410669Y-95238203D01*
X143295454Y-95324453D01*
X143209204Y-95439667D01*
X143158909Y-95574515D01*
X143152966Y-95629796D01*
X143152500Y-95634126D01*
X143152500Y-95637447D01*
X143152500Y-95637448D01*
X143152500Y-97426559D01*
X143152500Y-97426577D01*
X143152501Y-97429871D01*
X143152853Y-97433151D01*
X143152854Y-97433158D01*
X143158909Y-97489483D01*
X143172715Y-97526499D01*
X143209204Y-97624330D01*
X143295454Y-97739545D01*
X143410669Y-97825795D01*
X143522907Y-97867657D01*
X143542082Y-97874809D01*
X143598016Y-97916680D01*
X143622433Y-97982145D01*
X143607581Y-98050418D01*
X143586431Y-98078672D01*
X143464503Y-98200600D01*
X143328965Y-98394169D01*
X143229097Y-98608335D01*
X143167936Y-98836591D01*
X143147340Y-99071999D01*
X143167936Y-99307406D01*
X143212709Y-99474501D01*
X143229097Y-99535662D01*
X143328965Y-99749829D01*
X143464505Y-99943400D01*
X143631599Y-100110494D01*
X143817160Y-100240425D01*
X143860783Y-100295001D01*
X143867976Y-100364500D01*
X143836454Y-100426854D01*
X143817159Y-100443574D01*
X143631595Y-100573507D01*
X143464505Y-100740597D01*
X143328965Y-100934169D01*
X143229097Y-101148335D01*
X143167936Y-101376591D01*
X143147340Y-101611998D01*
X138000000Y-101611998D01*
X138000000Y-93246847D01*
X145197501Y-93246847D01*
X145197819Y-93249960D01*
X145197820Y-93249979D01*
X145207913Y-93348774D01*
X145262638Y-93513922D01*
X145353976Y-93662004D01*
X145403781Y-93711809D01*
X145437266Y-93773132D01*
X145439628Y-93788681D01*
X145445610Y-93857056D01*
X145449830Y-93876086D01*
X145450259Y-93877266D01*
X145450260Y-93877270D01*
X145475914Y-93947757D01*
X145477083Y-93951122D01*
X145501081Y-94023539D01*
X145509576Y-94041087D01*
X145551480Y-94104799D01*
X145553390Y-94107797D01*
X145592789Y-94171671D01*
X145593453Y-94172747D01*
X145605754Y-94187846D01*
X145661211Y-94240167D01*
X145663798Y-94242680D01*
X146303620Y-94882501D01*
X146335015Y-94935587D01*
X146367448Y-95047224D01*
X146406873Y-95113888D01*
X146449183Y-95185430D01*
X146562720Y-95298967D01*
X146700925Y-95380701D01*
X146855114Y-95425497D01*
X146891137Y-95428332D01*
X147289498Y-95428331D01*
X147325522Y-95425497D01*
X147479711Y-95380701D01*
X147537197Y-95346703D01*
X147604919Y-95329520D01*
X147663438Y-95346703D01*
X147682393Y-95357913D01*
X147720924Y-95380701D01*
X147827847Y-95411764D01*
X147875114Y-95425497D01*
X147911137Y-95428332D01*
X148309498Y-95428331D01*
X148345522Y-95425497D01*
X148499711Y-95380701D01*
X148502246Y-95379201D01*
X148508338Y-95375600D01*
X148571458Y-95358332D01*
X148985461Y-95358332D01*
X149003431Y-95359641D01*
X149007487Y-95360234D01*
X149027190Y-95363121D01*
X149076535Y-95358804D01*
X149087343Y-95358332D01*
X149089267Y-95358332D01*
X149092876Y-95358332D01*
X149123717Y-95354726D01*
X149127198Y-95354371D01*
X149201964Y-95347831D01*
X149201964Y-95347830D01*
X149203220Y-95347721D01*
X149225052Y-95342882D01*
X149229728Y-95342336D01*
X149244109Y-95341499D01*
X149310648Y-95341499D01*
X149434084Y-95315261D01*
X149495803Y-95302143D01*
X149668730Y-95225150D01*
X149668730Y-95225149D01*
X149821870Y-95113888D01*
X149948533Y-94973215D01*
X150043179Y-94809283D01*
X150043179Y-94809282D01*
X150101674Y-94629255D01*
X150121460Y-94440999D01*
X150101674Y-94252743D01*
X150043179Y-94072715D01*
X150043179Y-94072714D01*
X149948533Y-93908782D01*
X149821870Y-93768109D01*
X149668730Y-93656847D01*
X149495802Y-93579854D01*
X149310648Y-93540499D01*
X149310646Y-93540499D01*
X149145749Y-93540499D01*
X149078710Y-93520814D01*
X149032955Y-93468010D01*
X149023011Y-93398852D01*
X149028043Y-93377494D01*
X149037594Y-93348670D01*
X149047681Y-93249937D01*
X149048001Y-93243659D01*
X149048001Y-92990999D01*
X147934501Y-92990999D01*
X147867462Y-92971314D01*
X147821707Y-92918510D01*
X147810501Y-92866999D01*
X147810501Y-92736999D01*
X150845000Y-92736999D01*
X150845000Y-93306517D01*
X150845354Y-93313131D01*
X150851400Y-93369370D01*
X150901647Y-93504088D01*
X150987811Y-93619187D01*
X151102910Y-93705351D01*
X151237628Y-93755598D01*
X151293867Y-93761644D01*
X151300482Y-93761999D01*
X152195000Y-93761999D01*
X152195000Y-92736999D01*
X150845000Y-92736999D01*
X147810501Y-92736999D01*
X147810501Y-91540999D01*
X148310501Y-91540999D01*
X148310501Y-92490999D01*
X149048001Y-92490999D01*
X149048001Y-92238338D01*
X149047933Y-92236999D01*
X150845000Y-92236999D01*
X152195000Y-92236999D01*
X152195000Y-91211999D01*
X152695000Y-91211999D01*
X152695000Y-92236999D01*
X154045000Y-92236999D01*
X154045000Y-91667480D01*
X154044645Y-91660866D01*
X154038599Y-91604627D01*
X153988352Y-91469909D01*
X153902188Y-91354810D01*
X153787089Y-91268646D01*
X153652371Y-91218399D01*
X153596132Y-91212353D01*
X153589518Y-91211999D01*
X152695000Y-91211999D01*
X152195000Y-91211999D01*
X151300482Y-91211999D01*
X151293867Y-91212353D01*
X151237628Y-91218399D01*
X151102910Y-91268646D01*
X150987811Y-91354810D01*
X150901647Y-91469909D01*
X150851400Y-91604627D01*
X150845354Y-91660866D01*
X150845000Y-91667480D01*
X150845000Y-92236999D01*
X149047933Y-92236999D01*
X149047681Y-92232060D01*
X149037594Y-92133325D01*
X148982906Y-91968288D01*
X148891630Y-91820306D01*
X148768693Y-91697369D01*
X148620711Y-91606093D01*
X148455674Y-91551405D01*
X148356939Y-91541318D01*
X148350662Y-91540999D01*
X148310501Y-91540999D01*
X147810501Y-91540999D01*
X147770340Y-91540999D01*
X147764062Y-91541318D01*
X147665327Y-91551405D01*
X147500290Y-91606093D01*
X147352308Y-91697369D01*
X147229369Y-91820308D01*
X147228833Y-91821178D01*
X147225520Y-91824157D01*
X147219121Y-91830557D01*
X147218782Y-91830218D01*
X147176885Y-91867903D01*
X147107923Y-91879124D01*
X147043841Y-91851281D01*
X147017756Y-91821178D01*
X147017025Y-91819993D01*
X146894006Y-91696974D01*
X146745924Y-91605636D01*
X146580776Y-91550911D01*
X146481981Y-91540818D01*
X146481962Y-91540817D01*
X146478849Y-91540499D01*
X145892153Y-91540499D01*
X145889040Y-91540816D01*
X145889020Y-91540818D01*
X145790225Y-91550911D01*
X145625077Y-91605636D01*
X145476995Y-91696974D01*
X145353976Y-91819993D01*
X145262638Y-91968075D01*
X145207913Y-92133223D01*
X145197820Y-92232018D01*
X145197818Y-92232038D01*
X145197501Y-92235151D01*
X145197501Y-93246847D01*
X138000000Y-93246847D01*
X138000000Y-89999999D01*
X138394551Y-89999999D01*
X138414317Y-90251149D01*
X138473126Y-90496110D01*
X138521330Y-90612485D01*
X138569534Y-90728859D01*
X138701164Y-90943659D01*
X138864776Y-91135224D01*
X139056341Y-91298836D01*
X139271141Y-91430466D01*
X139503889Y-91526873D01*
X139748852Y-91585683D01*
X140000000Y-91605449D01*
X140251148Y-91585683D01*
X140496111Y-91526873D01*
X140728859Y-91430466D01*
X140943659Y-91298836D01*
X141135224Y-91135224D01*
X141298836Y-90943659D01*
X141430466Y-90728859D01*
X141526873Y-90496111D01*
X141585683Y-90251148D01*
X141605449Y-90000000D01*
X141585683Y-89748852D01*
X141526873Y-89503889D01*
X141430466Y-89271141D01*
X141298836Y-89056341D01*
X141135224Y-88864776D01*
X140943659Y-88701164D01*
X140728859Y-88569534D01*
X140612485Y-88521330D01*
X140496110Y-88473126D01*
X140251149Y-88414317D01*
X140000000Y-88394551D01*
X139748850Y-88414317D01*
X139503889Y-88473126D01*
X139271139Y-88569535D01*
X139056342Y-88701163D01*
X138864776Y-88864776D01*
X138701163Y-89056342D01*
X138569535Y-89271139D01*
X138473126Y-89503889D01*
X138414317Y-89748850D01*
X138394551Y-89999999D01*
X138000000Y-89999999D01*
X138000000Y-88124000D01*
X138019685Y-88056961D01*
X138072489Y-88011206D01*
X138124000Y-88000000D01*
X146952956Y-88000000D01*
X147019995Y-88019685D01*
G37*
%TD.AperFunction*%
%TD*%
M02*
