%TF.GenerationSoftware,KiCad,Pcbnew,7.0.2*%
%TF.CreationDate,2023-07-22T23:42:46-04:00*%
%TF.ProjectId,encoder_go_v1_rev1,656e636f-6465-4725-9f67-6f5f76315f72,rev?*%
%TF.SameCoordinates,Original*%
%TF.FileFunction,Copper,L2,Bot*%
%TF.FilePolarity,Positive*%
%FSLAX46Y46*%
G04 Gerber Fmt 4.6, Leading zero omitted, Abs format (unit mm)*
G04 Created by KiCad (PCBNEW 7.0.2) date 2023-07-22 23:42:46*
%MOMM*%
%LPD*%
G01*
G04 APERTURE LIST*
G04 Aperture macros list*
%AMRoundRect*
0 Rectangle with rounded corners*
0 $1 Rounding radius*
0 $2 $3 $4 $5 $6 $7 $8 $9 X,Y pos of 4 corners*
0 Add a 4 corners polygon primitive as box body*
4,1,4,$2,$3,$4,$5,$6,$7,$8,$9,$2,$3,0*
0 Add four circle primitives for the rounded corners*
1,1,$1+$1,$2,$3*
1,1,$1+$1,$4,$5*
1,1,$1+$1,$6,$7*
1,1,$1+$1,$8,$9*
0 Add four rect primitives between the rounded corners*
20,1,$1+$1,$2,$3,$4,$5,0*
20,1,$1+$1,$4,$5,$6,$7,0*
20,1,$1+$1,$6,$7,$8,$9,0*
20,1,$1+$1,$8,$9,$2,$3,0*%
G04 Aperture macros list end*
%TA.AperFunction,SMDPad,CuDef*%
%ADD10RoundRect,0.131250X0.131250X0.503750X-0.131250X0.503750X-0.131250X-0.503750X0.131250X-0.503750X0*%
%TD*%
%TA.AperFunction,ComponentPad*%
%ADD11R,1.700000X1.700000*%
%TD*%
%TA.AperFunction,ComponentPad*%
%ADD12O,1.700000X1.700000*%
%TD*%
%TA.AperFunction,ViaPad*%
%ADD13C,0.800000*%
%TD*%
%TA.AperFunction,Conductor*%
%ADD14C,0.200000*%
%TD*%
%TA.AperFunction,Conductor*%
%ADD15C,0.500000*%
%TD*%
G04 APERTURE END LIST*
D10*
%TO.P,U1,1,VDD*%
%TO.N,+3.3V*%
X148095000Y-97460000D03*
%TO.P,U1,2,MODE*%
%TO.N,Net-(J2-Pin_2)*%
X149365000Y-97460000D03*
%TO.P,U1,3,OUT_SEL*%
%TO.N,Net-(J2-Pin_1)*%
X150635000Y-97460000D03*
%TO.P,U1,4,GND*%
%TO.N,GND*%
X151905000Y-97460000D03*
%TO.P,U1,5,PUSH*%
%TO.N,Net-(J2-Pin_3)*%
X151905000Y-102540000D03*
%TO.P,U1,6,SDA\u002CA\u002CDO*%
%TO.N,Net-(J1-Pin_5)*%
X150635000Y-102540000D03*
%TO.P,U1,7,SCL\u002CB\u002CCLK*%
%TO.N,Net-(J1-Pin_4)*%
X149365000Y-102540000D03*
%TO.P,U1,8,Z\u002CCS*%
%TO.N,Net-(J1-Pin_3)*%
X148095000Y-102540000D03*
%TD*%
D11*
%TO.P,J2,1,Pin_1*%
%TO.N,Net-(J2-Pin_1)*%
X144503000Y-96531999D03*
D12*
%TO.P,J2,2,Pin_2*%
%TO.N,Net-(J2-Pin_2)*%
X144503000Y-99071999D03*
%TO.P,J2,3,Pin_3*%
%TO.N,Net-(J2-Pin_3)*%
X144503000Y-101611999D03*
%TD*%
D13*
%TO.N,+3.3V*%
X148661135Y-96502259D03*
%TO.N,GND*%
X149216000Y-94440999D03*
X151065869Y-96289747D03*
X153466000Y-102190999D03*
%TO.N,Net-(J1-Pin_3)*%
X148093836Y-101259094D03*
%TO.N,Net-(J1-Pin_4)*%
X149445469Y-103710892D03*
%TO.N,Net-(J1-Pin_5)*%
X150716000Y-104440999D03*
%TD*%
D14*
%TO.N,+3.3V*%
X148095000Y-97460000D02*
X148095000Y-97068394D01*
X148095000Y-97068394D02*
X148661135Y-96502259D01*
D15*
%TO.N,GND*%
X151065869Y-96289747D02*
X151905000Y-97128878D01*
X151905000Y-97128878D02*
X151905000Y-97460000D01*
D14*
%TO.N,Net-(J1-Pin_3)*%
X148093836Y-101259094D02*
X148093836Y-102538836D01*
X148093836Y-102538836D02*
X148095000Y-102540000D01*
%TO.N,Net-(J1-Pin_4)*%
X149445469Y-103710892D02*
X149445469Y-102620469D01*
X149445469Y-102620469D02*
X149365000Y-102540000D01*
%TO.N,Net-(J1-Pin_5)*%
X150716000Y-104440999D02*
X150716000Y-102621000D01*
X150716000Y-102621000D02*
X150635000Y-102540000D01*
%TO.N,Net-(J2-Pin_1)*%
X144503000Y-96531999D02*
X145232240Y-95802759D01*
X145232240Y-95802759D02*
X149327760Y-95802759D01*
X150635000Y-97109999D02*
X150635000Y-97460000D01*
X149327760Y-95802759D02*
X150635000Y-97109999D01*
%TO.N,Net-(J2-Pin_2)*%
X149365000Y-98541999D02*
X149365000Y-97460000D01*
X148835000Y-99071999D02*
X149365000Y-98541999D01*
X144503000Y-99071999D02*
X148835000Y-99071999D01*
%TO.N,Net-(J2-Pin_3)*%
X147763786Y-100017478D02*
X151048567Y-100017478D01*
X144503000Y-101611999D02*
X145555905Y-100559094D01*
X145555905Y-100559094D02*
X147222170Y-100559094D01*
X151048567Y-100017478D02*
X151905000Y-100873911D01*
X151905000Y-100873911D02*
X151905000Y-102540000D01*
X147222170Y-100559094D02*
X147763786Y-100017478D01*
%TD*%
%TA.AperFunction,Conductor*%
%TO.N,GND*%
G36*
X147019995Y-88019685D02*
G01*
X147040637Y-88036319D01*
X148375126Y-89370807D01*
X148408611Y-89432130D01*
X148410060Y-89440007D01*
X148435251Y-89607141D01*
X148474419Y-89734120D01*
X148505959Y-89836368D01*
X148610040Y-90052494D01*
X148745170Y-90250694D01*
X148908331Y-90426539D01*
X149095878Y-90576103D01*
X149303622Y-90696044D01*
X149457401Y-90756398D01*
X149514963Y-90778990D01*
X149526921Y-90783683D01*
X149760789Y-90837062D01*
X150000000Y-90854988D01*
X150239211Y-90837062D01*
X150473079Y-90783683D01*
X150696378Y-90696044D01*
X150904122Y-90576103D01*
X151091669Y-90426539D01*
X151254830Y-90250694D01*
X151389960Y-90052494D01*
X151415240Y-90000000D01*
X158394551Y-90000000D01*
X158414317Y-90251149D01*
X158473126Y-90496110D01*
X158521330Y-90612485D01*
X158569534Y-90728859D01*
X158701164Y-90943659D01*
X158864776Y-91135224D01*
X159056341Y-91298836D01*
X159271141Y-91430466D01*
X159503889Y-91526873D01*
X159748852Y-91585683D01*
X160000000Y-91605449D01*
X160251148Y-91585683D01*
X160496111Y-91526873D01*
X160728859Y-91430466D01*
X160943659Y-91298836D01*
X161135224Y-91135224D01*
X161298836Y-90943659D01*
X161430466Y-90728859D01*
X161526873Y-90496111D01*
X161585683Y-90251148D01*
X161605449Y-90000000D01*
X161585683Y-89748852D01*
X161526873Y-89503889D01*
X161430466Y-89271141D01*
X161298836Y-89056341D01*
X161135224Y-88864776D01*
X160943659Y-88701164D01*
X160728859Y-88569534D01*
X160612485Y-88521330D01*
X160496110Y-88473126D01*
X160251149Y-88414317D01*
X160000000Y-88394551D01*
X159748850Y-88414317D01*
X159503889Y-88473126D01*
X159271139Y-88569535D01*
X159056342Y-88701163D01*
X158864776Y-88864776D01*
X158701163Y-89056342D01*
X158569535Y-89271139D01*
X158473126Y-89503889D01*
X158414317Y-89748850D01*
X158394551Y-90000000D01*
X151415240Y-90000000D01*
X151494041Y-89836368D01*
X151564748Y-89607143D01*
X151589939Y-89440006D01*
X151619394Y-89376652D01*
X151624857Y-89370823D01*
X152959362Y-88036319D01*
X153020685Y-88002834D01*
X153047043Y-88000000D01*
X161876000Y-88000000D01*
X161943039Y-88019685D01*
X161988794Y-88072489D01*
X162000000Y-88124000D01*
X162000000Y-111876000D01*
X161980315Y-111943039D01*
X161927511Y-111988794D01*
X161876000Y-112000000D01*
X155797044Y-112000000D01*
X155730005Y-111980315D01*
X155709363Y-111963681D01*
X153745682Y-110000000D01*
X158394551Y-110000000D01*
X158414317Y-110251149D01*
X158473126Y-110496110D01*
X158486631Y-110528713D01*
X158569534Y-110728859D01*
X158701164Y-110943659D01*
X158864776Y-111135224D01*
X159056341Y-111298836D01*
X159271141Y-111430466D01*
X159503889Y-111526873D01*
X159748852Y-111585683D01*
X160000000Y-111605449D01*
X160251148Y-111585683D01*
X160496111Y-111526873D01*
X160728859Y-111430466D01*
X160943659Y-111298836D01*
X161135224Y-111135224D01*
X161298836Y-110943659D01*
X161430466Y-110728859D01*
X161526873Y-110496111D01*
X161585683Y-110251148D01*
X161605449Y-110000000D01*
X161585683Y-109748852D01*
X161526873Y-109503889D01*
X161430466Y-109271141D01*
X161298836Y-109056341D01*
X161135224Y-108864776D01*
X160943659Y-108701164D01*
X160728859Y-108569534D01*
X160612485Y-108521330D01*
X160496110Y-108473126D01*
X160251149Y-108414317D01*
X160000000Y-108394551D01*
X159748850Y-108414317D01*
X159503889Y-108473126D01*
X159271139Y-108569535D01*
X159056342Y-108701163D01*
X158864776Y-108864776D01*
X158701163Y-109056342D01*
X158569535Y-109271139D01*
X158473126Y-109503889D01*
X158414317Y-109748850D01*
X158394551Y-110000000D01*
X153745682Y-110000000D01*
X151624872Y-107879190D01*
X151591387Y-107817867D01*
X151589940Y-107810004D01*
X151564748Y-107642857D01*
X151494041Y-107413632D01*
X151389960Y-107197506D01*
X151254830Y-106999306D01*
X151091669Y-106823461D01*
X150904122Y-106673897D01*
X150904121Y-106673896D01*
X150696376Y-106553955D01*
X150473081Y-106466317D01*
X150239208Y-106412937D01*
X150000000Y-106395011D01*
X149760791Y-106412937D01*
X149526918Y-106466317D01*
X149303623Y-106553955D01*
X149095878Y-106673896D01*
X148908330Y-106823461D01*
X148745169Y-106999306D01*
X148610040Y-107197505D01*
X148505959Y-107413632D01*
X148435252Y-107642857D01*
X148410060Y-107809991D01*
X148380603Y-107873347D01*
X148375126Y-107879190D01*
X144290637Y-111963681D01*
X144229314Y-111997166D01*
X144202956Y-112000000D01*
X138124000Y-112000000D01*
X138056961Y-111980315D01*
X138011206Y-111927511D01*
X138000000Y-111876000D01*
X138000000Y-109999999D01*
X138394551Y-109999999D01*
X138414317Y-110251149D01*
X138473126Y-110496110D01*
X138486631Y-110528713D01*
X138569534Y-110728859D01*
X138701164Y-110943659D01*
X138864776Y-111135224D01*
X139056341Y-111298836D01*
X139271141Y-111430466D01*
X139503889Y-111526873D01*
X139748852Y-111585683D01*
X140000000Y-111605449D01*
X140251148Y-111585683D01*
X140496111Y-111526873D01*
X140728859Y-111430466D01*
X140943659Y-111298836D01*
X141135224Y-111135224D01*
X141298836Y-110943659D01*
X141430466Y-110728859D01*
X141526873Y-110496111D01*
X141585683Y-110251148D01*
X141605449Y-110000000D01*
X141585683Y-109748852D01*
X141526873Y-109503889D01*
X141430466Y-109271141D01*
X141298836Y-109056341D01*
X141135224Y-108864776D01*
X140943659Y-108701164D01*
X140728859Y-108569534D01*
X140612484Y-108521330D01*
X140496110Y-108473126D01*
X140251149Y-108414317D01*
X140000000Y-108394551D01*
X139748850Y-108414317D01*
X139503889Y-108473126D01*
X139271139Y-108569535D01*
X139056342Y-108701163D01*
X138864776Y-108864776D01*
X138701163Y-109056342D01*
X138569535Y-109271139D01*
X138473126Y-109503889D01*
X138414317Y-109748850D01*
X138394551Y-109999999D01*
X138000000Y-109999999D01*
X138000000Y-101611998D01*
X143147340Y-101611998D01*
X143167936Y-101847406D01*
X143191846Y-101936638D01*
X143229097Y-102075662D01*
X143328965Y-102289829D01*
X143464505Y-102483400D01*
X143631599Y-102650494D01*
X143825170Y-102786034D01*
X144039337Y-102885902D01*
X144267592Y-102947061D01*
X144267592Y-102947062D01*
X144502999Y-102967658D01*
X144502999Y-102967657D01*
X144503000Y-102967658D01*
X144738408Y-102947062D01*
X144966663Y-102885902D01*
X145180830Y-102786034D01*
X145374401Y-102650494D01*
X145541495Y-102483400D01*
X145677035Y-102289829D01*
X145776903Y-102075662D01*
X145838063Y-101847407D01*
X145858659Y-101611999D01*
X145838063Y-101376591D01*
X145821744Y-101315687D01*
X145823407Y-101245838D01*
X145862569Y-101187975D01*
X145926797Y-101160471D01*
X145941519Y-101159594D01*
X147066268Y-101159594D01*
X147133307Y-101179279D01*
X147179062Y-101232083D01*
X147189588Y-101270631D01*
X147194324Y-101315688D01*
X147208162Y-101447351D01*
X147266656Y-101627378D01*
X147345325Y-101763637D01*
X147361798Y-101831538D01*
X147357015Y-101860229D01*
X147334819Y-101936633D01*
X147334819Y-101936637D01*
X147332000Y-101972454D01*
X147332000Y-103107546D01*
X147334819Y-103143363D01*
X147379350Y-103296642D01*
X147379351Y-103296644D01*
X147460602Y-103434032D01*
X147573467Y-103546897D01*
X147573469Y-103546898D01*
X147710858Y-103628150D01*
X147864137Y-103672681D01*
X147899954Y-103675500D01*
X147902399Y-103675500D01*
X148287601Y-103675500D01*
X148290046Y-103675500D01*
X148325863Y-103672681D01*
X148387352Y-103654817D01*
X148457221Y-103655016D01*
X148515891Y-103692958D01*
X148544735Y-103756596D01*
X148545268Y-103760931D01*
X148559795Y-103899149D01*
X148618289Y-104079176D01*
X148712935Y-104243108D01*
X148839598Y-104383781D01*
X148992738Y-104495043D01*
X149165666Y-104572036D01*
X149350821Y-104611392D01*
X149350823Y-104611392D01*
X149540117Y-104611392D01*
X149696938Y-104578059D01*
X149766605Y-104583375D01*
X149822339Y-104625512D01*
X149840650Y-104661030D01*
X149888821Y-104809284D01*
X149983466Y-104973215D01*
X150110129Y-105113888D01*
X150263269Y-105225150D01*
X150436197Y-105302143D01*
X150621352Y-105341499D01*
X150621354Y-105341499D01*
X150810648Y-105341499D01*
X150934083Y-105315261D01*
X150995803Y-105302143D01*
X151168730Y-105225150D01*
X151321871Y-105113887D01*
X151448533Y-104973215D01*
X151543179Y-104809283D01*
X151601674Y-104629255D01*
X151621460Y-104440999D01*
X151601674Y-104252743D01*
X151571332Y-104159362D01*
X151543179Y-104072714D01*
X151448535Y-103908785D01*
X151430234Y-103888460D01*
X151367881Y-103819210D01*
X151337652Y-103756220D01*
X151346277Y-103686885D01*
X151391018Y-103633219D01*
X151457671Y-103612261D01*
X151505501Y-103624858D01*
X151505815Y-103623779D01*
X151520855Y-103628148D01*
X151520858Y-103628150D01*
X151674137Y-103672681D01*
X151709954Y-103675500D01*
X151712399Y-103675500D01*
X152097601Y-103675500D01*
X152100046Y-103675500D01*
X152135863Y-103672681D01*
X152289142Y-103628150D01*
X152426531Y-103546898D01*
X152539398Y-103434031D01*
X152620650Y-103296642D01*
X152665181Y-103143363D01*
X152668000Y-103107546D01*
X152668000Y-101972454D01*
X152665181Y-101936637D01*
X152620650Y-101783358D01*
X152590918Y-101733085D01*
X152531424Y-101632485D01*
X152532717Y-101631720D01*
X152508334Y-101587066D01*
X152505500Y-101560708D01*
X152505500Y-100921398D01*
X152506561Y-100905212D01*
X152510682Y-100873910D01*
X152501475Y-100803978D01*
X152490044Y-100717149D01*
X152429536Y-100571070D01*
X152429535Y-100571069D01*
X152333282Y-100445628D01*
X152308229Y-100426405D01*
X152296034Y-100415710D01*
X151506766Y-99626442D01*
X151496070Y-99614246D01*
X151476848Y-99589194D01*
X151351408Y-99492942D01*
X151203801Y-99431801D01*
X151197269Y-99431373D01*
X151048567Y-99411795D01*
X151020730Y-99415460D01*
X151017264Y-99415917D01*
X151001080Y-99416978D01*
X149638617Y-99416978D01*
X149571578Y-99397293D01*
X149525823Y-99344489D01*
X149515879Y-99275331D01*
X149544904Y-99211775D01*
X149550936Y-99205297D01*
X149756043Y-99000189D01*
X149768223Y-98989508D01*
X149793282Y-98970281D01*
X149889536Y-98844840D01*
X149950044Y-98698761D01*
X149965500Y-98581360D01*
X149965662Y-98580123D01*
X149993901Y-98516216D01*
X150052208Y-98477720D01*
X150122073Y-98476858D01*
X150151728Y-98489524D01*
X150250858Y-98548150D01*
X150404137Y-98592681D01*
X150439954Y-98595500D01*
X150442399Y-98595500D01*
X150827601Y-98595500D01*
X150830046Y-98595500D01*
X150865863Y-98592681D01*
X151019142Y-98548150D01*
X151156531Y-98466898D01*
X151182671Y-98440757D01*
X151243993Y-98407272D01*
X151313685Y-98412256D01*
X151358034Y-98440757D01*
X151383776Y-98466499D01*
X151521059Y-98547687D01*
X151674212Y-98592182D01*
X151707574Y-98594808D01*
X151712451Y-98594999D01*
X152097570Y-98594999D01*
X152102403Y-98594809D01*
X152135781Y-98592182D01*
X152288944Y-98547685D01*
X152426220Y-98466501D01*
X152448842Y-98443879D01*
X152510165Y-98410393D01*
X152560840Y-98409967D01*
X152716000Y-98440999D01*
X152716000Y-96440999D01*
X152439007Y-96440999D01*
X152375887Y-96423731D01*
X152288942Y-96372313D01*
X152135787Y-96327817D01*
X152102425Y-96325191D01*
X152097548Y-96325000D01*
X151712429Y-96325000D01*
X151707596Y-96325190D01*
X151674218Y-96327817D01*
X151521055Y-96372314D01*
X151383775Y-96453501D01*
X151358033Y-96479243D01*
X151296709Y-96512728D01*
X151227018Y-96507742D01*
X151182672Y-96479242D01*
X151156532Y-96453102D01*
X151019144Y-96371851D01*
X151019143Y-96371850D01*
X151019142Y-96371850D01*
X150865863Y-96327319D01*
X150856634Y-96326592D01*
X150832478Y-96324691D01*
X150832467Y-96324690D01*
X150830046Y-96324500D01*
X150827601Y-96324500D01*
X150750098Y-96324500D01*
X150683059Y-96304815D01*
X150662417Y-96288181D01*
X149785959Y-95411723D01*
X149775263Y-95399527D01*
X149756041Y-95374475D01*
X149630600Y-95278222D01*
X149484522Y-95217715D01*
X149367121Y-95202259D01*
X149327760Y-95197076D01*
X149299923Y-95200741D01*
X149296457Y-95201198D01*
X149280273Y-95202259D01*
X145521332Y-95202259D01*
X145477997Y-95194440D01*
X145460485Y-95187908D01*
X145404166Y-95181853D01*
X145404165Y-95181852D01*
X145400873Y-95181499D01*
X145397550Y-95181499D01*
X143608439Y-95181499D01*
X143608420Y-95181499D01*
X143605128Y-95181500D01*
X143601848Y-95181852D01*
X143601840Y-95181853D01*
X143545515Y-95187908D01*
X143410669Y-95238203D01*
X143295454Y-95324453D01*
X143209204Y-95439667D01*
X143209203Y-95439668D01*
X143209204Y-95439668D01*
X143158909Y-95574516D01*
X143152500Y-95634126D01*
X143152500Y-95637447D01*
X143152500Y-95637448D01*
X143152500Y-97426559D01*
X143152500Y-97426577D01*
X143152501Y-97429871D01*
X143158909Y-97489482D01*
X143209204Y-97624330D01*
X143295454Y-97739545D01*
X143410669Y-97825795D01*
X143522907Y-97867657D01*
X143542082Y-97874809D01*
X143598016Y-97916680D01*
X143622433Y-97982145D01*
X143607581Y-98050418D01*
X143586431Y-98078672D01*
X143464503Y-98200600D01*
X143328965Y-98394169D01*
X143229097Y-98608335D01*
X143167936Y-98836591D01*
X143147340Y-99071999D01*
X143167936Y-99307406D01*
X143197012Y-99415917D01*
X143229097Y-99535662D01*
X143328965Y-99749829D01*
X143464505Y-99943400D01*
X143631599Y-100110494D01*
X143817160Y-100240425D01*
X143860783Y-100295001D01*
X143867976Y-100364500D01*
X143836454Y-100426854D01*
X143817159Y-100443574D01*
X143631595Y-100573507D01*
X143464505Y-100740597D01*
X143328965Y-100934169D01*
X143229097Y-101148335D01*
X143167936Y-101376591D01*
X143147340Y-101611998D01*
X138000000Y-101611998D01*
X138000000Y-89999999D01*
X138394551Y-89999999D01*
X138414317Y-90251149D01*
X138473126Y-90496110D01*
X138521330Y-90612485D01*
X138569534Y-90728859D01*
X138701164Y-90943659D01*
X138864776Y-91135224D01*
X139056341Y-91298836D01*
X139271141Y-91430466D01*
X139503889Y-91526873D01*
X139748852Y-91585683D01*
X140000000Y-91605449D01*
X140251148Y-91585683D01*
X140496111Y-91526873D01*
X140728859Y-91430466D01*
X140943659Y-91298836D01*
X141135224Y-91135224D01*
X141298836Y-90943659D01*
X141430466Y-90728859D01*
X141526873Y-90496111D01*
X141585683Y-90251148D01*
X141605449Y-90000000D01*
X141585683Y-89748852D01*
X141526873Y-89503889D01*
X141430466Y-89271141D01*
X141298836Y-89056341D01*
X141135224Y-88864776D01*
X140943659Y-88701164D01*
X140728859Y-88569534D01*
X140612485Y-88521330D01*
X140496110Y-88473126D01*
X140251149Y-88414317D01*
X140000000Y-88394551D01*
X139748850Y-88414317D01*
X139503889Y-88473126D01*
X139271139Y-88569535D01*
X139056342Y-88701163D01*
X138864776Y-88864776D01*
X138701163Y-89056342D01*
X138569535Y-89271139D01*
X138473126Y-89503889D01*
X138414317Y-89748850D01*
X138394551Y-89999999D01*
X138000000Y-89999999D01*
X138000000Y-88124000D01*
X138019685Y-88056961D01*
X138072489Y-88011206D01*
X138124000Y-88000000D01*
X146952956Y-88000000D01*
X147019995Y-88019685D01*
G37*
%TD.AperFunction*%
%TD*%
M02*
